<?xml version="1.0" encoding="utf-8"?>
<!-- Generator: Adobe Illustrator 26.0.2, SVG Export Plug-In . SVG Version: 6.00 Build 0)  -->
<svg version="1.1" id="Layer_1" xmlns="http://www.w3.org/2000/svg" xmlns:xlink="http://www.w3.org/1999/xlink" x="0px" y="0px"
	 viewBox="0 0 147 30.1" style="enable-background:new 0 0 147 30.1;" xml:space="preserve">
<style type="text/css">
	.st0{fill:#FFFFFF;}
	.st1{enable-background:new    ;}
</style>
<g>
	<g>
		<g>
			<path class="st0" d="M48.6,18H25.7V0h22.9V18z M28.5,15.2h17.4V2.7H28.5V15.2z"/>
			<g>
				<path class="st0" d="M40.7,2.4l-2.2,4.8c-0.6,1.4-1.3,3.6-1.3,3.6h-0.2c0,0-0.6-2.1-1.3-3.6l-2.2-4.8h-6.9l6.9,15.1h7.2
					l6.9-15.1H40.7z"/>
			</g>
		</g>
		<g>
			<g>
				<path class="st0" d="M74.3,18H51.4V0h22.9V18z M54.2,15.2h17.4V2.8H54.2V15.2z"/>
			</g>
			<g>
				<path class="st0" d="M65.9,6.6l-5.1-0.5C59.4,6,59,5.6,59,5c0-0.9,1.2-1.7,3.5-1.7c1.8,0,2.8,0.7,3.2,1.4
					C65.8,5,66,5.1,66.4,5.1h4.7c0.5,0,0.8-0.3,0.8-0.8c0-0.7-0.1-1.3-0.4-1.9H53.6c-0.5,1-0.8,2-0.8,3.2c0,3.3,2.5,5.2,6.7,5.6
					l5.2,0.5c1.6,0.2,2.1,0.8,2.1,1.3c0,1-1,1.8-3.9,1.8c-2.2,0-3.2-0.6-3.8-1.8c-0.2-0.4-0.4-0.6-0.9-0.6h-4.5
					c-0.5,0-0.8,0.4-0.8,0.8v0.3c0,1.5,0.7,2.9,2.1,4h15.7c1.6-1.3,2.4-3.1,2.4-4.9C73,9.5,71.1,7.1,65.9,6.6z"/>
			</g>
		</g>
		<g>
			<path class="st0" d="M22.9,18H0V0h22.9V18z M2.8,15.2h17.4V2.8H2.8V15.2z"/>
			<g>
				<path class="st0" d="M21.6,13.6L16.4,2.4H6.5L1.7,12.8v4.7h4.8l0.3-0.6h9.4l0.3,0.6h5.2V13.6z M9,11.8l1-2.2
					c0.6-1.3,1.4-4.1,1.4-4.1h0.2c0,0,0.8,2.8,1.4,4.1l1,2.2H9z"/>
			</g>
		</g>
	</g>
	<g class="st1">
		<path class="st0" d="M7.5,28.8h-4l-0.4,1C3,30,2.9,30,2.7,30H0.1C0,30,0,29.9,0,29.9c0,0,0-0.1,0.1-0.2l4.1-9h2.6l4.1,9
			c0,0.1,0.1,0.1,0.1,0.2c0,0,0,0.1-0.1,0.1H8.3C8.1,30,8,30,8,29.8L7.5,28.8z M4.4,26.6h2.1l-0.4-0.9c-0.2-0.6-0.6-1.8-0.6-1.8H5.5
			c0,0-0.4,1.2-0.6,1.8L4.4,26.6z"/>
		<path class="st0" d="M12,30c-0.1,0-0.2-0.1-0.2-0.2v-8.9c0-0.1,0.1-0.2,0.2-0.2h4c3,0,5.2,1.8,5.2,4.6c0,2.8-1.8,4.6-5.2,4.6H12z
			 M14.6,23.1v4.6H16c1.6,0,2.4-0.9,2.4-2.3c0-1.4-1-2.3-2.4-2.3H14.6z"/>
		<path class="st0" d="M22.5,20.9c0-0.1,0.1-0.2,0.2-0.2h4.6c2.3,0,3.9,1.4,3.9,3.4c0,1.3-0.7,2.3-1.8,2.8v0c0,0,0.2,0.3,0.4,0.5
			l1.4,2.1c0.1,0.1,0.1,0.2,0.1,0.2c0,0.1,0,0.1-0.2,0.1h-2.8c-0.1,0-0.2,0-0.2-0.1l-1.6-2.4h-1.2v2.4c0,0.1-0.1,0.2-0.2,0.2h-2.4
			c-0.1,0-0.2-0.1-0.2-0.2V20.9z M25.2,23.1v2.2H27c0.9,0,1.4-0.5,1.4-1.1c0-0.6-0.5-1.1-1.4-1.1H25.2z"/>
		<path class="st0" d="M35.3,29.8c0,0.1-0.1,0.2-0.2,0.2h-2.4c-0.1,0-0.2-0.1-0.2-0.2v-8.9c0-0.1,0.1-0.2,0.2-0.2h2.4
			c0.1,0,0.2,0.1,0.2,0.2V29.8z"/>
		<path class="st0" d="M43.6,28.8h-4l-0.4,1C39.1,30,39,30,38.8,30h-2.6c-0.1,0-0.1-0.1-0.1-0.1c0,0,0-0.1,0.1-0.2l4.1-9h2.6l4.1,9
			c0,0.1,0.1,0.1,0.1,0.2c0,0,0,0.1-0.1,0.1h-2.6c-0.2,0-0.2,0-0.3-0.2L43.6,28.8z M40.5,26.6h2.1l-0.4-0.9
			c-0.2-0.6-0.6-1.8-0.6-1.8h-0.1c0,0-0.4,1.2-0.6,1.8L40.5,26.6z"/>
		<path class="st0" d="M51.7,26.1c-0.4-0.4-0.9-1-0.9-1h-0.1v4.8c0,0.1-0.1,0.2-0.2,0.2h-2.4c-0.1,0-0.2-0.1-0.2-0.2v-8.9
			c0-0.1,0.1-0.2,0.2-0.2h2.1l4,4c0.4,0.4,0.8,1,0.8,1h0v-4.8c0-0.1,0.1-0.2,0.2-0.2h2.4c0.1,0,0.2,0.1,0.2,0.2v8.9
			c0,0.1-0.1,0.2-0.2,0.2h-2.1L51.7,26.1z"/>
		<path class="st0" d="M66.7,24.6c0.3,0.6,0.6,1.6,0.6,1.6h0.1c0,0,0.3-0.9,0.6-1.6l1.6-3.6c0.1-0.2,0.2-0.2,0.3-0.2h2.6
			c0.1,0,0.1,0.1,0.1,0.1s0,0.1-0.1,0.3L68.4,30h-2.3l-4.1-8.9C62,21,62,20.9,62,20.8s0-0.1,0.1-0.1h2.6c0.2,0,0.2,0,0.3,0.2
			L66.7,24.6z"/>
		<path class="st0" d="M73.1,27.7c0.7,0,1.2,0.5,1.2,1.2s-0.5,1.2-1.2,1.2s-1.2-0.5-1.2-1.2S72.4,27.7,73.1,27.7z"/>
		<path class="st0" d="M80.8,26.9c0.2,0,0.3,0.1,0.4,0.3c0.2,0.5,0.7,0.8,1.7,0.8c1.3,0,1.7-0.4,1.7-0.8c0-0.2-0.2-0.5-0.9-0.6
			l-2.3-0.2c-1.9-0.2-3-1-3-2.5c0-1.8,1.6-3.3,4.3-3.3c2.9,0,4.2,1.3,4.2,2.7c0,0.2-0.2,0.4-0.4,0.4h-2.1c-0.2,0-0.2,0-0.3-0.2
			c-0.2-0.3-0.6-0.6-1.4-0.6c-1,0-1.6,0.4-1.6,0.8c0,0.3,0.2,0.5,0.8,0.5l2.3,0.2c2.3,0.2,3.2,1.3,3.2,2.6c0,1.6-1.4,3.2-4.5,3.2
			c-2.8,0-4.5-1.2-4.5-2.8v-0.1c0-0.2,0.2-0.4,0.4-0.4H80.8z"/>
		<path class="st0" d="M88,23.1c-0.1,0-0.2-0.1-0.2-0.2V21c0-0.1,0.1-0.2,0.2-0.2h8.9c0.1,0,0.2,0.1,0.2,0.2v1.9
			c0,0.1-0.1,0.2-0.2,0.2h-3.1v6.7c0,0.1-0.1,0.2-0.2,0.2h-2.4c-0.1,0-0.2-0.1-0.2-0.2v-6.7H88z"/>
		<path class="st0" d="M103.5,28.8h-4l-0.4,1C98.9,30,98.9,30,98.7,30h-2.6C96,30,96,29.9,96,29.9c0,0,0-0.1,0.1-0.2l4.1-9h2.6
			l4.1,9c0,0.1,0.1,0.1,0.1,0.2c0,0,0,0.1-0.1,0.1h-2.6c-0.2,0-0.2,0-0.3-0.2L103.5,28.8z M100.4,26.6h2.1l-0.4-0.9
			c-0.2-0.6-0.6-1.8-0.6-1.8h-0.1c0,0-0.4,1.2-0.6,1.8L100.4,26.6z"/>
		<path class="st0" d="M112.2,29.8c0,0.1-0.1,0.2-0.2,0.2h-2.4c-0.1,0-0.2-0.1-0.2-0.2v-3.4l-3.5-5.4c-0.1-0.1-0.1-0.1-0.1-0.2
			c0,0,0-0.1,0.1-0.1h2.8c0.2,0,0.3,0,0.4,0.2l1.2,2c0.3,0.5,0.4,0.8,0.4,0.8h0.1c0,0,0.1-0.4,0.4-0.8l1.2-2
			c0.1-0.2,0.2-0.2,0.4-0.2h2.8c0.1,0,0.1,0,0.1,0.1c0,0.1,0,0.1-0.1,0.2l-3.5,5.4V29.8z"/>
		<path class="st0" d="M122.4,24.9l3.7,4.9c0.1,0.1,0.1,0.1,0.1,0.2c0,0,0,0.1-0.1,0.1h-3c-0.1,0-0.2,0-0.3-0.2l-2.3-3l-1.1,1.2v1.7
			c0,0.1-0.1,0.2-0.2,0.2h-2.4c-0.1,0-0.2-0.1-0.2-0.2v-8.9c0-0.1,0.1-0.2,0.2-0.2h2.4c0.1,0,0.2,0.1,0.2,0.2v3.5h0
			c0,0,0.2-0.3,0.5-0.6l2.7-2.9c0.1-0.2,0.2-0.2,0.4-0.2h2.8c0.1,0,0.2,0.1,0.2,0.2c0,0,0,0.1-0.1,0.2L122.4,24.9z"/>
		<path class="st0" d="M136.5,25.4c0,3-2.4,4.8-5.2,4.8s-5.2-1.8-5.2-4.8c0-3,2.4-4.8,5.2-4.8S136.5,22.4,136.5,25.4z M128.9,25.4
			c0,1.5,1.1,2.4,2.4,2.4s2.4-0.9,2.4-2.4c0-1.5-1.1-2.4-2.4-2.4S128.9,23.9,128.9,25.4z"/>
		<path class="st0" d="M141.1,24.6c0.3,0.6,0.6,1.6,0.6,1.6h0.1c0,0,0.3-0.9,0.6-1.6l1.6-3.6c0.1-0.2,0.2-0.2,0.3-0.2h2.6
			c0.1,0,0.1,0.1,0.1,0.1s0,0.1-0.1,0.3l-4.1,8.9h-2.3l-4.1-8.9c-0.1-0.1-0.1-0.2-0.1-0.3s0-0.1,0.1-0.1h2.6c0.2,0,0.2,0,0.3,0.2
			L141.1,24.6z"/>
	</g>
</g>
</svg>
