<?xml version="1.0" encoding="utf-8"?>
<!-- Generator: Adobe Illustrator 26.0.1, SVG Export Plug-In . SVG Version: 6.00 Build 0)  -->
<svg version="1.1" id="Layer_1" xmlns="http://www.w3.org/2000/svg" xmlns:xlink="http://www.w3.org/1999/xlink" x="0px" y="0px"
	 viewBox="0 0 147 43" style="enable-background:new 0 0 147 43;" xml:space="preserve">
<style type="text/css">
	.st0{enable-background:new    ;}
	.st1{fill:#FFFFFF;}
	.st2{fill:none;}
</style>
<g>
	<g class="st0">
		<path class="st1" d="M54.6,31.7v-2.4h-0.1c-1.1,1.8-3.1,2.8-5.3,2.8c-4.5,0-8.2-3.4-8.2-7.9c0-5,3.6-8.4,8.1-8.4
			c2.3,0,4.2,0.8,5.4,2.6h0.1v-2.2h2.9v15.5H54.6z M54.7,23.9c0-3-2.2-5.5-5.4-5.5c-2.9,0-5.3,2.5-5.3,5.5c0,2.9,2.4,5.5,5.3,5.5
			C52.3,29.4,54.7,26.9,54.7,23.9z"/>
		<path class="st1" d="M72.5,31.7v-2.2h-0.1c-1.2,1.7-3.2,2.6-5.5,2.6c-4.5,0-8.1-3.4-8.1-8c0-4.7,3.4-8.3,8-8.3
			c2.1,0,4.1,0.8,5.3,2.3h0.1v-7.1h2.9v20.7H72.5z M67.1,18.4c-3,0-5.3,2.5-5.3,5.5c0,2.9,2.4,5.5,5.3,5.5c2.9,0,5.4-2.4,5.4-5.3
			C72.5,20.9,70.4,18.4,67.1,18.4z"/>
		<path class="st1" d="M77.4,31.7V16.2h2.7v1.4h0.1c0.7-1,1.9-1.7,3.9-1.8v3c-2.5,0.1-3.8,1.6-3.8,4.2v8.7H77.4z"/>
		<path class="st1" d="M85.4,14.4v-3.4h2.9v3.4H85.4z M85.4,31.7V16.2h2.9v15.5H85.4z"/>
		<path class="st1" d="M103.3,31.7v-2.4h-0.1c-1.1,1.8-3.1,2.8-5.3,2.8c-4.5,0-8.2-3.4-8.2-7.9c0-5,3.6-8.4,8.1-8.4
			c2.3,0,4.2,0.8,5.4,2.6h0.1v-2.2h2.9v15.5H103.3z M103.4,23.9c0-3-2.2-5.5-5.4-5.5c-2.9,0-5.3,2.5-5.3,5.5c0,2.9,2.4,5.5,5.3,5.5
			C101,29.4,103.4,26.9,103.4,23.9z"/>
		<path class="st1" d="M119.3,31.7v-8.5c0-3.3-1.3-4.8-3.9-4.8c-2.5,0-4.1,1.9-4.1,4.8v8.5h-2.9V16.2h2.7v1.7h0.1
			c1.1-1.5,2.7-2.1,4.5-2.1c3.7,0,6.5,2.4,6.5,6.6v9.3H119.3z"/>
		<path class="st1" d="M124.9,31.7v-3.4h2.9v3.4H124.9z"/>
		<path class="st1" d="M136.7,20.3c-0.1-1.1-0.8-1.9-2-1.9c-1.1,0-1.8,0.8-1.8,1.7c0,1.3,1.3,1.7,2.9,2.2c2.2,0.7,4.2,2,4.2,4.9
			c0,3-2.2,5-5.2,5c-2.8,0-5.5-1.9-5.5-5.5h2.9c0.1,1.9,1.1,2.8,2.6,2.8c1.3,0,2.2-0.9,2.2-2.1c0-1.1-0.8-1.8-2.6-2.4
			c-3.8-1.2-4.5-2.9-4.5-4.6c0-2.7,2.3-4.6,4.9-4.6c2.6,0,4.7,1.8,4.8,4.5H136.7z"/>
	</g>
	<g>
		<rect class="st2" width="147" height="43"/>
		<path class="st1" d="M147,43H0V0h147V43z M4,39h139V4H4V39z"/>
	</g>
</g>
</svg>
