<?xml version="1.0" encoding="utf-8"?>
<!-- Generator: Adobe Illustrator 26.0.2, SVG Export Plug-In . SVG Version: 6.00 Build 0)  -->
<svg version="1.1" id="Layer_1" xmlns="http://www.w3.org/2000/svg" xmlns:xlink="http://www.w3.org/1999/xlink" x="0px" y="0px"
	 viewBox="0 0 147 35" style="enable-background:new 0 0 147 35;" xml:space="preserve">
<style type="text/css">
	.st0{enable-background:new    ;}
	.st1{fill:#FFFFFF;}
	.st2{fill:#DF2F22;}
</style>
<g>
	<g class="st0">
		<path class="st1" d="M7.6,33.5H3.5l-0.5,1.1c-0.1,0.2-0.1,0.2-0.3,0.2H0.1C0,34.8,0,34.7,0,34.7c0,0,0-0.1,0.1-0.2l4.2-9.1h2.6
			l4.2,9.1c0,0.1,0.1,0.1,0.1,0.2c0,0,0,0.1-0.1,0.1H8.4c-0.2,0-0.3,0-0.3-0.2L7.6,33.5z M4.5,31.3h2.2l-0.4-1
			c-0.3-0.6-0.6-1.8-0.6-1.8H5.5c0,0-0.4,1.2-0.6,1.8L4.5,31.3z"/>
		<path class="st1" d="M12.2,34.8c-0.1,0-0.2-0.1-0.2-0.2v-9c0-0.1,0.1-0.2,0.2-0.2h4.1c3.1,0,5.3,1.8,5.3,4.7
			c0,2.8-1.8,4.7-5.3,4.7H12.2z M14.8,27.8v4.6h1.5c1.6,0,2.4-0.9,2.4-2.3c0-1.5-1-2.3-2.5-2.3H14.8z"/>
		<path class="st1" d="M22.8,25.6c0-0.1,0.1-0.2,0.2-0.2h4.7c2.3,0,4,1.4,4,3.5c0,1.3-0.7,2.3-1.8,2.8v0c0,0,0.2,0.3,0.4,0.5
			l1.4,2.2c0.1,0.1,0.1,0.2,0.1,0.2c0,0.1,0,0.1-0.2,0.1h-2.9c-0.1,0-0.2,0-0.2-0.1l-1.6-2.5h-1.3v2.4c0,0.1-0.1,0.2-0.2,0.2h-2.4
			c-0.1,0-0.2-0.1-0.2-0.2V25.6z M25.6,27.8V30h1.8c0.9,0,1.4-0.5,1.4-1.1c0-0.6-0.5-1.1-1.4-1.1H25.6z"/>
		<path class="st1" d="M35.8,34.6c0,0.1-0.1,0.2-0.2,0.2h-2.4c-0.1,0-0.2-0.1-0.2-0.2v-9c0-0.1,0.1-0.2,0.2-0.2h2.4
			c0.1,0,0.2,0.1,0.2,0.2V34.6z"/>
		<path class="st1" d="M44.2,33.5h-4.1l-0.5,1.1c-0.1,0.2-0.1,0.2-0.3,0.2h-2.6c-0.1,0-0.1-0.1-0.1-0.1c0,0,0-0.1,0.1-0.2l4.2-9.1
			h2.6l4.2,9.1c0,0.1,0.1,0.1,0.1,0.2c0,0,0,0.1-0.1,0.1h-2.6c-0.2,0-0.3,0-0.3-0.2L44.2,33.5z M41,31.3h2.2l-0.4-1
			c-0.3-0.6-0.6-1.8-0.6-1.8h-0.1c0,0-0.4,1.2-0.6,1.8L41,31.3z"/>
		<path class="st1" d="M52.3,30.8c-0.4-0.4-0.9-1.1-0.9-1.1h-0.1v4.9c0,0.1-0.1,0.2-0.2,0.2h-2.4c-0.1,0-0.2-0.1-0.2-0.2v-9
			c0-0.1,0.1-0.2,0.2-0.2h2.1l4,4.1c0.5,0.5,0.9,1,0.9,1h0v-4.9c0-0.1,0.1-0.2,0.2-0.2h2.4c0.1,0,0.2,0.1,0.2,0.2v9
			c0,0.1-0.1,0.2-0.2,0.2h-2.1L52.3,30.8z"/>
		<path class="st1" d="M67.5,29.3c0.3,0.7,0.6,1.6,0.6,1.6h0.1c0,0,0.3-0.9,0.6-1.6l1.7-3.7c0.1-0.2,0.2-0.2,0.3-0.2h2.6
			c0.1,0,0.1,0.1,0.1,0.1s0,0.1-0.1,0.3l-4.1,9h-2.3l-4.1-9c-0.1-0.1-0.1-0.2-0.1-0.3s0-0.1,0.1-0.1h2.6c0.2,0,0.3,0,0.3,0.2
			L67.5,29.3z"/>
		<path class="st1" d="M72.2,32.5c0.7,0,1.2,0.5,1.2,1.2S72.9,35,72.2,35c-0.7,0-1.2-0.5-1.2-1.2S71.5,32.5,72.2,32.5z"/>
		<path class="st1" d="M80,31.6c0.2,0,0.3,0.1,0.4,0.3c0.3,0.5,0.7,0.8,1.7,0.8c1.3,0,1.8-0.4,1.8-0.8c0-0.3-0.2-0.5-1-0.6l-2.3-0.2
			c-1.9-0.2-3-1-3-2.5c0-1.8,1.6-3.3,4.4-3.3c2.9,0,4.2,1.3,4.2,2.7c0,0.2-0.2,0.4-0.4,0.4h-2.1c-0.2,0-0.3,0-0.3-0.2
			c-0.2-0.3-0.6-0.6-1.4-0.6c-1,0-1.6,0.4-1.6,0.8c0,0.3,0.2,0.5,0.8,0.5l2.3,0.2c2.4,0.2,3.2,1.3,3.2,2.7c0,1.7-1.5,3.2-4.6,3.2
			c-2.9,0-4.5-1.3-4.5-2.8V32c0-0.2,0.2-0.4,0.4-0.4H80z"/>
		<path class="st1" d="M87.2,27.8c-0.1,0-0.2-0.1-0.2-0.2v-1.9c0-0.1,0.1-0.2,0.2-0.2h9c0.1,0,0.2,0.1,0.2,0.2v1.9
			c0,0.1-0.1,0.2-0.2,0.2h-3.1v6.8c0,0.1-0.1,0.2-0.2,0.2h-2.4c-0.1,0-0.2-0.1-0.2-0.2v-6.8H87.2z"/>
		<path class="st1" d="M102.9,33.5h-4.1l-0.5,1.1c-0.1,0.2-0.1,0.2-0.3,0.2h-2.6c-0.1,0-0.1-0.1-0.1-0.1c0,0,0-0.1,0.1-0.2l4.2-9.1
			h2.6l4.2,9.1c0,0.1,0.1,0.1,0.1,0.2c0,0,0,0.1-0.1,0.1h-2.6c-0.2,0-0.3,0-0.3-0.2L102.9,33.5z M99.8,31.3h2.2l-0.4-1
			c-0.3-0.6-0.6-1.8-0.6-1.8h-0.1c0,0-0.4,1.2-0.6,1.8L99.8,31.3z"/>
		<path class="st1" d="M111.7,34.6c0,0.1-0.1,0.2-0.2,0.2h-2.4c-0.1,0-0.2-0.1-0.2-0.2v-3.4l-3.6-5.5c-0.1-0.1-0.1-0.1-0.1-0.2
			c0,0,0-0.1,0.1-0.1h2.9c0.2,0,0.3,0,0.4,0.2l1.3,2.1c0.3,0.5,0.4,0.8,0.4,0.8h0.1c0,0,0.1-0.4,0.4-0.8l1.3-2.1
			c0.1-0.2,0.2-0.2,0.4-0.2h2.8c0.1,0,0.1,0,0.1,0.1c0,0.1,0,0.1-0.1,0.2l-3.6,5.5V34.6z"/>
		<path class="st1" d="M122.1,29.6l3.8,4.9c0.1,0.1,0.1,0.1,0.1,0.2c0,0,0,0.1-0.1,0.1h-3c-0.1,0-0.3,0-0.3-0.2l-2.3-3l-1.2,1.2v1.8
			c0,0.1-0.1,0.2-0.2,0.2h-2.4c-0.1,0-0.2-0.1-0.2-0.2v-9c0-0.1,0.1-0.2,0.2-0.2h2.4c0.1,0,0.2,0.1,0.2,0.2v3.6h0
			c0,0,0.2-0.3,0.5-0.7l2.8-2.9c0.1-0.2,0.3-0.2,0.4-0.2h2.9c0.1,0,0.2,0.1,0.2,0.2c0,0,0,0.1-0.1,0.2L122.1,29.6z"/>
		<path class="st1" d="M136.4,30.1c0,3-2.4,4.9-5.3,4.9s-5.3-1.8-5.3-4.9c0-3,2.4-4.9,5.3-4.9S136.4,27.1,136.4,30.1z M128.6,30.1
			c0,1.5,1.1,2.5,2.5,2.5s2.5-0.9,2.5-2.5c0-1.5-1.1-2.5-2.5-2.5S128.6,28.6,128.6,30.1z"/>
		<path class="st1" d="M141,29.3c0.3,0.7,0.6,1.6,0.6,1.6h0.1c0,0,0.3-0.9,0.6-1.6l1.7-3.7c0.1-0.2,0.2-0.2,0.3-0.2h2.6
			c0.1,0,0.1,0.1,0.1,0.1s0,0.1-0.1,0.3l-4.1,9h-2.3l-4.1-9c-0.1-0.1-0.1-0.2-0.1-0.3s0-0.1,0.1-0.1h2.6c0.2,0,0.3,0,0.3,0.2
			L141,29.3z"/>
	</g>
	<g>
		<path class="st1" d="M15.1,17.7H7.5l-0.8,1.9C6.5,19.9,6.4,20,6.1,20H1.2C1,20,1,19.9,1,19.8c0-0.1,0.1-0.2,0.1-0.3L8.9,2.6h4.9
			l7.8,16.8c0.1,0.1,0.1,0.3,0.1,0.3c0,0.1-0.1,0.2-0.2,0.2h-4.9c-0.3,0-0.5-0.1-0.6-0.4L15.1,17.7z M9.3,13.6h4l-0.8-1.8
			c-0.5-1.1-1.1-3.3-1.1-3.3h-0.2c0,0-0.7,2.2-1.1,3.3L9.3,13.6z"/>
		<path class="st1" d="M35.6,9.8c0.6,1.2,1,2.9,1,2.9h0.2c0,0,0.5-1.7,1-2.9L41,3c0.2-0.3,0.3-0.4,0.6-0.4h4.8
			c0.2,0,0.2,0.1,0.2,0.2S46.6,3,46.5,3.3L38.9,20h-4.3L27,3.3c-0.1-0.3-0.2-0.4-0.2-0.5s0.1-0.2,0.2-0.2h4.8c0.3,0,0.5,0,0.6,0.4
			L35.6,9.8z"/>
		<path class="st1" d="M58.2,14.1c0.4,0,0.6,0.2,0.7,0.5c0.5,1,1.3,1.5,3.2,1.5c2.4,0,3.3-0.7,3.3-1.5c0-0.5-0.4-1-1.8-1.1l-4.3-0.4
			c-3.5-0.3-5.6-1.9-5.6-4.7c0-3.4,3-6.1,8.1-6.1c5.4,0,7.9,2.5,7.9,5.1c0,0.4-0.3,0.7-0.7,0.7h-3.9c-0.3,0-0.5-0.1-0.6-0.4
			c-0.3-0.6-1.1-1.2-2.6-1.2c-1.9,0-2.9,0.7-2.9,1.4c0,0.5,0.3,0.9,1.5,1l4.3,0.4c4.3,0.4,5.9,2.4,5.9,5c0,3.1-2.7,6-8.5,6
			c-5.3,0-8.4-2.3-8.4-5.2v-0.2c0-0.4,0.3-0.7,0.7-0.7H58.2z"/>
		<path class="st1" d="M19.8,2.8v16.9H2.8V2.8H19.8 M22.6,0H0v22.6h22.6V0L22.6,0z"/>
		<path class="st1" d="M70.6,2.8v16.9H53.7V2.8H70.6 M73.4,0H50.9v22.6h22.6V0L73.4,0z"/>
		<circle class="st2" cx="46.4" cy="20.9" r="1.7"/>
		<g>
			<path class="st1" d="M41.9,20.9c0-0.4,0.1-0.8,0.2-1.2H28.3V2.8h16.9v13.8c0.4-0.1,0.8-0.2,1.2-0.2c0.6,0,1.1,0.1,1.7,0.3V0H25.4
				v22.6h16.8C42,22.1,41.9,21.5,41.9,20.9z"/>
		</g>
	</g>
</g>
</svg>
