<?xml version="1.0" encoding="utf-8"?>
<!-- Generator: Adobe Illustrator 26.0.2, SVG Export Plug-In . SVG Version: 6.00 Build 0)  -->
<svg version="1.1" id="Layer_1" xmlns="http://www.w3.org/2000/svg" xmlns:xlink="http://www.w3.org/1999/xlink" x="0px" y="0px"
	 viewBox="0 0 147 35" style="enable-background:new 0 0 147 35;" xml:space="preserve">
<style type="text/css">
	.st0{fill:#DF2F22;}
	.st1{fill:#FFFFFF;}
</style>
<g>
	<circle class="st0" cx="46.4" cy="20.9" r="1.7"/>
	<g>
		<path class="st1" d="M7.6,33.5H3.5L3,34.6c-0.1,0.2-0.1,0.2-0.3,0.2H0.1C0,34.8,0,34.7,0,34.7s0-0.1,0.1-0.2l4.2-9.1h2.6l4.2,9.1
			c0,0.1,0.1,0.1,0.1,0.2c0,0,0,0.1-0.1,0.1H8.4c-0.2,0-0.3,0-0.3-0.2L7.6,33.5z M4.5,31.3h2.2l-0.4-1c-0.3-0.6-0.6-1.8-0.6-1.8H5.5
			c0,0-0.4,1.2-0.6,1.8L4.5,31.3z"/>
		<path class="st1" d="M12.2,34.8c-0.1,0-0.2-0.1-0.2-0.2v-9c0-0.1,0.1-0.2,0.2-0.2h4.1c3.1,0,5.3,1.8,5.3,4.7
			c0,2.8-1.8,4.7-5.3,4.7H12.2z M14.8,27.8v4.6h1.5c1.6,0,2.4-0.9,2.4-2.3c0-1.5-1-2.3-2.5-2.3H14.8z"/>
		<path class="st1" d="M22.8,25.6c0-0.1,0.1-0.2,0.2-0.2h4.7c2.3,0,4,1.4,4,3.5c0,1.3-0.7,2.3-1.8,2.8l0,0c0,0,0.2,0.3,0.4,0.5
			l1.4,2.2c0.1,0.1,0.1,0.2,0.1,0.2c0,0.1,0,0.1-0.2,0.1h-2.9c-0.1,0-0.2,0-0.2-0.1l-1.6-2.5h-1.3v2.4c0,0.1-0.1,0.2-0.2,0.2H23
			c-0.1,0-0.2-0.1-0.2-0.2V25.6z M25.6,27.8V30h1.8c0.9,0,1.4-0.5,1.4-1.1s-0.5-1.1-1.4-1.1H25.6z"/>
		<path class="st1" d="M35.8,34.6c0,0.1-0.1,0.2-0.2,0.2h-2.4c-0.1,0-0.2-0.1-0.2-0.2v-9c0-0.1,0.1-0.2,0.2-0.2h2.4
			c0.1,0,0.2,0.1,0.2,0.2V34.6z"/>
		<path class="st1" d="M44.2,33.5h-4.1l-0.5,1.1c-0.1,0.2-0.1,0.2-0.3,0.2h-2.6c-0.1,0-0.1-0.1-0.1-0.1s0-0.1,0.1-0.2l4.2-9.1h2.6
			l4.2,9.1c0,0.1,0.1,0.1,0.1,0.2c0,0,0,0.1-0.1,0.1h-2.6c-0.2,0-0.3,0-0.3-0.2L44.2,33.5z M41,31.3h2.2l-0.4-1
			c-0.3-0.6-0.6-1.8-0.6-1.8h-0.1c0,0-0.4,1.2-0.6,1.8L41,31.3z"/>
		<path class="st1" d="M52.3,30.8c-0.4-0.4-0.9-1.1-0.9-1.1h-0.1v4.9c0,0.1-0.1,0.2-0.2,0.2h-2.4c-0.1,0-0.2-0.1-0.2-0.2v-9
			c0-0.1,0.1-0.2,0.2-0.2h2.1l4,4.1c0.5,0.5,0.9,1,0.9,1l0,0v-4.9c0-0.1,0.1-0.2,0.2-0.2h2.4c0.1,0,0.2,0.1,0.2,0.2v9
			c0,0.1-0.1,0.2-0.2,0.2h-2.1L52.3,30.8z"/>
		<path class="st1" d="M67.5,29.3c0.3,0.7,0.6,1.6,0.6,1.6h0.1c0,0,0.3-0.9,0.6-1.6l1.7-3.7c0.1-0.2,0.2-0.2,0.3-0.2h2.6
			c0.1,0,0.1,0.1,0.1,0.1s0,0.1-0.1,0.3l-4.1,9H67l-4.1-9c-0.1-0.1-0.1-0.2-0.1-0.3s0-0.1,0.1-0.1h2.6c0.2,0,0.3,0,0.3,0.2
			L67.5,29.3z"/>
		<path class="st1" d="M72.2,32.5c0.7,0,1.2,0.5,1.2,1.2S72.9,35,72.2,35c-0.7,0-1.2-0.5-1.2-1.2S71.5,32.5,72.2,32.5z"/>
		<path class="st1" d="M80,31.6c0.2,0,0.3,0.1,0.4,0.3c0.3,0.5,0.7,0.8,1.7,0.8c1.3,0,1.8-0.4,1.8-0.8c0-0.3-0.2-0.5-1-0.6l-2.3-0.2
			c-1.9-0.2-3-1-3-2.5c0-1.8,1.6-3.3,4.4-3.3c2.9,0,4.2,1.3,4.2,2.7c0,0.2-0.2,0.4-0.4,0.4h-2.1c-0.2,0-0.3,0-0.3-0.2
			c-0.2-0.3-0.6-0.6-1.4-0.6c-1,0-1.6,0.4-1.6,0.8c0,0.3,0.2,0.5,0.8,0.5l2.3,0.2c2.4,0.2,3.2,1.3,3.2,2.7c0,1.7-1.5,3.2-4.6,3.2
			c-2.9,0-4.5-1.3-4.5-2.8V32c0-0.2,0.2-0.4,0.4-0.4H80z"/>
		<path class="st1" d="M87.2,27.8c-0.1,0-0.2-0.1-0.2-0.2v-1.9c0-0.1,0.1-0.2,0.2-0.2h9c0.1,0,0.2,0.1,0.2,0.2v1.9
			c0,0.1-0.1,0.2-0.2,0.2h-3.1v6.8c0,0.1-0.1,0.2-0.2,0.2h-2.4c-0.1,0-0.2-0.1-0.2-0.2v-6.8H87.2z"/>
		<path class="st1" d="M102.9,33.5h-4.1l-0.5,1.1c-0.1,0.2-0.1,0.2-0.3,0.2h-2.6c-0.1,0-0.1-0.1-0.1-0.1s0-0.1,0.1-0.2l4.2-9.1h2.6
			l4.2,9.1c0,0.1,0.1,0.1,0.1,0.2c0,0,0,0.1-0.1,0.1h-2.6c-0.2,0-0.3,0-0.3-0.2L102.9,33.5z M99.8,31.3h2.2l-0.4-1
			c-0.3-0.6-0.6-1.8-0.6-1.8h-0.1c0,0-0.4,1.2-0.6,1.8L99.8,31.3z"/>
		<path class="st1" d="M111.7,34.6c0,0.1-0.1,0.2-0.2,0.2h-2.4c-0.1,0-0.2-0.1-0.2-0.2v-3.4l-3.6-5.5c-0.1-0.1-0.1-0.1-0.1-0.2
			c0,0,0-0.1,0.1-0.1h2.9c0.2,0,0.3,0,0.4,0.2l1.3,2.1c0.3,0.5,0.4,0.8,0.4,0.8h0.1c0,0,0.1-0.4,0.4-0.8l1.3-2.1
			c0.1-0.2,0.2-0.2,0.4-0.2h2.8c0.1,0,0.1,0,0.1,0.1s0,0.1-0.1,0.2l-3.6,5.5L111.7,34.6L111.7,34.6z"/>
		<path class="st1" d="M122.1,29.6l3.8,4.9c0.1,0.1,0.1,0.1,0.1,0.2c0,0,0,0.1-0.1,0.1h-3c-0.1,0-0.3,0-0.3-0.2l-2.3-3l-1.2,1.2v1.8
			c0,0.1-0.1,0.2-0.2,0.2h-2.4c-0.1,0-0.2-0.1-0.2-0.2v-9c0-0.1,0.1-0.2,0.2-0.2h2.4c0.1,0,0.2,0.1,0.2,0.2v3.6l0,0
			c0,0,0.2-0.3,0.5-0.7l2.8-2.9c0.1-0.2,0.3-0.2,0.4-0.2h2.9c0.1,0,0.2,0.1,0.2,0.2c0,0,0,0.1-0.1,0.2L122.1,29.6z"/>
		<path class="st1" d="M136.4,30.1c0,3-2.4,4.9-5.3,4.9s-5.3-1.8-5.3-4.9c0-3,2.4-4.9,5.3-4.9S136.4,27.1,136.4,30.1z M128.6,30.1
			c0,1.5,1.1,2.5,2.5,2.5s2.5-0.9,2.5-2.5c0-1.5-1.1-2.5-2.5-2.5S128.6,28.6,128.6,30.1z"/>
		<path class="st1" d="M141,29.3c0.3,0.7,0.6,1.6,0.6,1.6h0.1c0,0,0.3-0.9,0.6-1.6l1.7-3.7c0.1-0.2,0.2-0.2,0.3-0.2h2.6
			c0.1,0,0.1,0.1,0.1,0.1s0,0.1-0.1,0.3l-4.1,9h-2.3l-4.1-9c-0.1-0.1-0.1-0.2-0.1-0.3s0-0.1,0.1-0.1h2.6c0.2,0,0.3,0,0.3,0.2
			L141,29.3z"/>
		<path class="st1" d="M19.8,2.8v16.9h-17V2.8H19.8 M22.6,0H0v22.6h22.6V0L22.6,0z"/>
		<path class="st1" d="M70.6,2.8v16.9H53.7V2.8H70.6 M73.4,0H50.9v22.6h22.6L73.4,0L73.4,0z"/>
		<path class="st1" d="M41.9,20.9c0-0.4,0.1-0.8,0.2-1.2H28.3V2.8h16.9v13.8c0.4-0.1,0.8-0.2,1.2-0.2c0.6,0,1.1,0.1,1.7,0.3V0H25.4
			v22.6h16.8C42,22.1,41.9,21.5,41.9,20.9z"/>
		<path class="st1" d="M20.5,19L20.5,19L12.3,2.7l-0.1-0.3h-0.3h-1h-0.3l-0.1,0.3L2.1,19l0,0.1c-0.1,0.1-0.2,0.3-0.2,0.5
			c0,0.3,0.3,0.7,0.8,0.7h1.8c0.5,0,0.7-0.1,1-0.6l1.4-2.9h8.7l1.4,2.8c0.3,0.5,0.5,0.6,1,0.6h1.8c0.5,0,0.8-0.4,0.8-0.7
			C20.7,19.3,20.6,19.2,20.5,19z M8.5,13.6l1.9-3.8c0.2-0.5,0.6-1.4,0.9-2.1c0.3,0.7,0.7,1.6,0.9,2.1l1.9,3.8H8.5z"/>
		<path class="st1" d="M45.6,2.4h-2c-0.5,0-0.7,0.1-1,0.6l-4.9,9.8c-0.2,0.5-0.5,1.2-0.8,1.8c-0.2-0.6-0.6-1.3-0.8-1.8L31.2,3
			c-0.3-0.5-0.5-0.6-1-0.6h-2c-0.5,0-0.7,0.3-0.7,0.7c0,0.2,0.1,0.4,0.2,0.6l8.3,16.3l0.1,0.3h0.3h1h0.3l0.1-0.3l8.3-16.3
			c0.1-0.2,0.2-0.4,0.2-0.6C46.3,2.7,46,2.4,45.6,2.4z M38.1,13L43,3.2c0-0.1,0.1-0.2,0.1-0.2c0,0.1-0.1,0.1-0.1,0.2L38.1,13
			c-0.2,0.4-0.5,1.1-0.7,1.6C37.6,14.1,37.9,13.4,38.1,13z M30.8,3.2l4.9,9.7c0.2,0.4,0.5,1.1,0.7,1.6c-0.2-0.6-0.5-1.2-0.7-1.6
			L30.8,3.2c0-0.1-0.1-0.2-0.1-0.2C30.7,3.1,30.7,3.2,30.8,3.2z"/>
		<path class="st1" d="M64.5,9.8l-4.6-0.3c-1.5-0.1-2.2-0.6-2.2-1.5c0-1.6,1.7-2.7,4.2-2.7c2.5,0,4,0.9,4.1,2.5
			c0,0.6,0.4,0.9,0.9,0.9h1.7c0.6,0,0.9-0.4,0.9-0.8c0-1.7-0.7-5.8-7.6-5.8c-5.2,0-7.6,3-7.6,5.8c0,1.9,0.9,4.3,5.4,4.7l4.7,0.3
			c1.6,0.1,2.4,0.7,2.4,1.7c0,2.3-2.3,2.7-4.2,2.7c-4.8,0-4.8-2.2-4.8-2.9c0-0.6-0.3-0.9-0.9-0.9h-1.7c-0.5,0-0.8,0.3-0.8,0.8v0.3
			c0,2.7,2.2,5.9,8.2,5.9c5.3,0,7.7-3,7.7-5.9C70.2,13,69.4,10.2,64.5,9.8z M66.4,10.6c0.4,0.1,0.7,0.2,1,0.4
			c0.3,0.1,0.6,0.3,0.8,0.5c0.2,0.2,0.4,0.4,0.6,0.6c0.3,0.3,0.5,0.7,0.6,1c-0.1-0.4-0.3-0.7-0.6-1c-0.2-0.2-0.4-0.4-0.6-0.6
			c-0.2-0.2-0.5-0.3-0.8-0.5C67.1,10.8,66.7,10.7,66.4,10.6s-0.8-0.2-1.2-0.3C65.6,10.4,66,10.5,66.4,10.6z"/>
	</g>
</g>
</svg>
