<?xml version="1.0" encoding="utf-8"?>
<!-- Generator: Adobe Illustrator 26.0.3, SVG Export Plug-In . SVG Version: 6.00 Build 0)  -->
<svg version="1.1" id="Layer_1" xmlns="http://www.w3.org/2000/svg" xmlns:xlink="http://www.w3.org/1999/xlink" x="0px" y="0px"
	 viewBox="0 0 377 300" style="enable-background:new 0 0 377 300;" xml:space="preserve">
<style type="text/css">
	.st0{fill:#171626;}
	.st1{fill:#606060;}
</style>
<g>
	<g>
		<path class="st0" d="M70,140.3v28.2H58.8v-5.2c-2.7,4.2-6.3,6.3-10,6.3c-6.6,0-10.8-4.8-10.8-13.9v-2.2c0-8.2,5.1-12.9,13.6-12.9
			c1.5,0,4.1,0.3,6.3,0.7v-2.5c0-2.7-1.2-3.8-5.4-3.8c-2.6,0-7.5,0.7-11.4,1.6v-10.7c4.5-0.8,10.3-1.6,13.1-1.6
			C66,124.1,70,127.8,70,140.3z M50,153.7v0.6c0,2.8,1.2,4.2,2.8,4.2c1.7,0,3.5-1.2,5.1-4.2v-4.9c-1.3-0.3-2.7-0.4-3.7-0.4
			C51.5,149,50,150.7,50,153.7z"/>
		<path class="st0" d="M102.8,124.2V137c-0.7-0.1-1.7-0.1-2.6-0.1c-4,0-7.1,1.7-9.4,5.4v26.1H78.8v-43.2h11.1v6.4
			c2.9-4.4,6.8-7.4,11.3-7.4C101.7,124.1,102.2,124.1,102.8,124.2z"/>
		<path class="st0" d="M135.7,125.3l-0.2,10.7c-3.2-0.5-6-1-8.2-1c-5.1,0-6.9,1.9-6.9,6.9v9.8c0,5.1,2,6.7,6.9,6.7
			c2.1,0,4.3-0.3,8.2-1.1l0.3,10.9c-5.2,1-7.9,1.2-10.5,1.2c-11.3,0-16.8-5.8-16.8-16.8V141c0-11.1,5.5-16.8,16.9-16.8
			C128,124.1,130.9,124.4,135.7,125.3z"/>
		<path class="st0" d="M155.5,129.5c2.9-3.7,6.2-5.3,9.9-5.3c6.6,0,10.5,4.6,10.5,15.2v29.2h-12.1v-28c0-3.9-1.1-5-2.8-5
			c-1.8,0-3.8,1.5-5.5,4v29h-12.1v-60.5h12.1V129.5z"/>
		<path class="st0" d="M197.9,110.8v2.1c0,3.8-2.5,6-6.9,6c-4.3,0-6.9-2.2-6.9-6v-2.1c0-4,2.6-6.1,6.9-6.1
			C195.4,104.6,197.9,106.8,197.9,110.8z M196.9,168.5h-12.1v-43.2h12.1V168.5z"/>
		<path class="st0" d="M217.8,129.4c2.3-3,5.9-5.2,9.9-5.2c6.7,0,10.5,4.3,10.5,15.5v12.8c0,11.3-5.3,17-16.5,17
			c-11,0-16-5.4-16-16.8v-44.8h12.1V129.4z M217.9,139.4v14.4c0,3.4,1.5,5.1,4.1,5.1c2.9,0,4.3-1.7,4.3-5.2v-13.2
			c0-4.2-1.1-5.2-2.8-5.2C221.5,135.2,219.4,136.8,217.9,139.4z"/>
		<path class="st0" d="M277.1,140.3v28.2h-11.2v-5.2c-2.7,4.2-6.3,6.3-10,6.3c-6.6,0-10.8-4.8-10.8-13.9v-2.2
			c0-8.2,5.1-12.9,13.6-12.9c1.5,0,4.1,0.3,6.3,0.7v-2.5c0-2.7-1.2-3.8-5.4-3.8c-2.6,0-7.5,0.7-11.4,1.6v-10.7
			c4.5-0.8,10.3-1.6,13.1-1.6C273.1,124.1,277.1,127.8,277.1,140.3z M257.1,153.7v0.6c0,2.8,1.2,4.2,2.8,4.2c1.7,0,3.5-1.2,5.1-4.2
			v-4.9c-1.3-0.3-2.7-0.4-3.7-0.4C258.6,149,257.1,150.7,257.1,153.7z"/>
		<path class="st0" d="M297.9,168.5h-12.1v-60.5h12.1V168.5z"/>
		<path class="st0" d="M338.9,168.5h-11.2v-5.7c-2.9,4.2-6.5,6.7-10.5,6.7c-6.7,0-10.9-4.3-10.9-14.9v-15.1
			c0-10.3,4.4-15.4,11.7-15.4c3.5,0,6.6,1.7,8.8,3.5v-19.8h12.1V168.5z M318.5,140.7v12.8c0,3.9,1,5,2.7,5c1.9,0,3.9-1.5,5.6-4.5
			v-16.5c-1.4-1.3-3.3-2.2-4.8-2.2C319.7,135.2,318.5,136.6,318.5,140.7z"/>
	</g>
	<g>
		<path class="st1" d="M144.3,195.1l2.1-17.2c1.3-0.1,2.7-0.2,4.2-0.2c4.2,0,6.3,2.5,5.7,7l-0.5,4.4c-0.5,4.1-2.8,6.2-7.1,6.2
			C147.1,195.4,145.9,195.3,144.3,195.1z M154.3,189.3l0.6-4.5c0.5-3.9-1.2-5.6-4.3-5.6c-0.8,0-2,0.1-2.8,0.1l-1.8,14.7
			c1.2,0.1,2.1,0.2,2.8,0.2C151.8,194,153.9,192.4,154.3,189.3z"/>
		<path class="st1" d="M170.6,182.7l-0.1,0.4c-0.3,2.1-1.7,3.7-3.8,4.3l3.6,7.6H169c-0.3,0-0.4-0.1-0.5-0.3c-1.3-3-2.2-5-3.2-7
			c-1.1,0.1-2.4,0-3.8-0.3l-0.9,7.2c0,0.3-0.2,0.4-0.5,0.4h-1.1l2.1-17.1c1.1-0.1,2.8-0.2,4.1-0.2
			C169.1,177.8,171,179.8,170.6,182.7z M162.5,179.2l-0.9,7c1.1,0.2,1.9,0.3,2.9,0.3c2.7,0,4.2-1.2,4.5-3.5l0-0.2
			c0.3-2.4-1.1-3.7-3.9-3.7C164.3,179.1,163.2,179.1,162.5,179.2z"/>
		<path class="st1" d="M176.1,178.1c0.3,0,0.5,0.2,0.4,0.5l-2,16.5H173l2.1-16.9H176.1z"/>
		<path class="st1" d="M184.4,195h-2l-3.2-16.9h1.1c0.3,0,0.4,0.1,0.5,0.4c1,5,1.9,10,2.7,15c2.3-5.1,4.5-10.1,6.4-15.1
			c0.1-0.2,0.3-0.3,0.5-0.3h1.3L184.4,195z"/>
		<path class="st1" d="M195.2,178.1c0.3,0,0.5,0.2,0.4,0.5l-2,16.5h-1.5l2.1-16.9H195.2z"/>
		<path class="st1" d="M208.7,195h-1.8c-0.3,0-0.4-0.1-0.5-0.4l-5.2-14.8l-1.8,14.8c-0.1,0.3-0.2,0.4-0.5,0.4h-1.1l2.1-16.9h1.8
			c0.3,0,0.4,0.1,0.5,0.4c1.8,4.9,3.5,9.7,5.1,14.7l1.8-14.7c0.1-0.3,0.2-0.4,0.5-0.4h1.1L208.7,195z"/>
		<path class="st1" d="M213.4,189.8l0.8-6.9c0.4-3.7,2.1-5.1,5.6-5.1c1.1,0,2.9,0.3,4.5,0.7l-0.1,0.9c-0.1,0.3-0.3,0.4-0.5,0.3
			c-1.2-0.4-2.9-0.7-4.1-0.7c-2.4,0-3.6,1-4,3.7l-0.9,7.3c-0.3,2.6,0.9,3.9,3.4,3.9c1.2,0,2.4-0.3,3.6-0.7l0.8-6.4h-2.9
			c-0.3,0-0.5-0.2-0.4-0.5l0.1-0.9h4.9l-1.1,8.5c-2.2,0.9-3.6,1.3-5.1,1.3C214.6,195.4,213,193.5,213.4,189.8z"/>
		<path class="st1" d="M243.9,195h-1.2c-0.3,0-0.4-0.1-0.5-0.4c-0.2-1.3-0.4-2.5-0.7-3.8h-6.8l-1.7,3.9c-0.1,0.2-0.3,0.3-0.5,0.3
			h-1.2l7.4-16.9h1.9L243.9,195z M235.2,189.4h6c-0.6-3.3-1.2-6.6-1.9-9.9C238,182.8,236.7,186.1,235.2,189.4z"/>
		<path class="st1" d="M252.2,186.2c2.1,0.9,3,2.4,2.7,4.8l-0.1,0.3c-0.4,2.8-1.9,4.1-4.8,4.1c-1.3,0-2.9-0.4-4.5-1.1l0.1-1
			c0.1-0.3,0.3-0.5,0.5-0.3c0.9,0.4,2.1,0.8,3,1c0.3,0,0.7,0.1,1,0.1c2,0,3-0.8,3.2-2.7l0.1-0.4c0.2-1.7-0.3-2.7-1.9-3.4l-2.4-1
			c-2.1-0.8-3-2.7-2.6-5l0.1-0.2c0.4-2.4,1.9-3.5,4.9-3.5c1,0,2.4,0.2,3.8,0.6l-0.1,1c-0.1,0.3-0.2,0.4-0.5,0.4
			c-0.7-0.2-1.5-0.4-2.3-0.5c-0.3,0-0.7,0-1,0c-1.9,0-2.9,0.8-3.2,2.4l-0.1,0.3c-0.2,1.6,0.4,2.7,2.1,3.4L252.2,186.2z"/>
		<path class="st1" d="M263.5,186.2c2.1,0.9,3,2.4,2.7,4.8l-0.1,0.3c-0.4,2.8-1.9,4.1-4.8,4.1c-1.3,0-2.9-0.4-4.5-1.1l0.1-1
			c0.1-0.3,0.3-0.5,0.5-0.3c0.9,0.4,2.1,0.8,3,1c0.3,0,0.7,0.1,1,0.1c2,0,3-0.8,3.2-2.7l0.1-0.4c0.2-1.7-0.3-2.7-1.9-3.4l-2.4-1
			c-2.1-0.8-3-2.7-2.6-5l0.1-0.2c0.4-2.4,1.9-3.5,4.9-3.5c1,0,2.4,0.2,3.8,0.6l-0.1,1c-0.1,0.3-0.2,0.4-0.5,0.4
			c-0.7-0.2-1.5-0.4-2.3-0.5c-0.3,0-0.7,0-1,0c-1.9,0-2.9,0.8-3.2,2.4l-0.1,0.3c-0.2,1.6,0.4,2.7,2.1,3.4L263.5,186.2z"/>
		<path class="st1" d="M271.9,178.1c0.3,0,0.5,0.2,0.4,0.5l-2,16.5h-1.5l2.1-16.9H271.9z"/>
		<path class="st1" d="M281.1,186.2c2.1,0.9,3,2.4,2.7,4.8l-0.1,0.3c-0.4,2.8-1.9,4.1-4.8,4.1c-1.3,0-2.9-0.4-4.5-1.1l0.1-1
			c0.1-0.3,0.3-0.5,0.5-0.3c0.9,0.4,2.1,0.8,3,1c0.3,0,0.7,0.1,1,0.1c2,0,3-0.8,3.2-2.7l0.1-0.4c0.2-1.7-0.3-2.7-1.9-3.4l-2.4-1
			c-2.1-0.8-3-2.7-2.6-5l0.1-0.2c0.4-2.4,1.9-3.5,4.9-3.5c1,0,2.4,0.2,3.8,0.6l-0.1,1c-0.1,0.3-0.2,0.4-0.5,0.4
			c-0.7-0.2-1.5-0.4-2.3-0.5c-0.3,0-0.7,0-1,0c-1.9,0-2.9,0.8-3.2,2.4l-0.1,0.3c-0.2,1.6,0.4,2.7,2.1,3.4L281.1,186.2z"/>
		<path class="st1" d="M298.5,179.1c-0.1,0.3-0.2,0.4-0.5,0.4h-4.7l-1.8,15.1c-0.1,0.3-0.2,0.4-0.5,0.4H290l1.9-15.6h-4.6
			c-0.3,0-0.5-0.2-0.4-0.5l0.1-0.9h11.7L298.5,179.1z"/>
		<path class="st1" d="M308.9,195h-1.2c-0.3,0-0.4-0.1-0.5-0.4c-0.2-1.3-0.4-2.5-0.7-3.8h-6.8l-1.7,3.9c-0.1,0.2-0.3,0.3-0.5,0.3
			h-1.2l7.4-16.9h1.9L308.9,195z M300.3,189.4h6c-0.6-3.3-1.2-6.6-1.9-9.9C303,182.8,301.7,186.1,300.3,189.4z"/>
		<path class="st1" d="M322.2,195h-1.8c-0.3,0-0.4-0.1-0.5-0.4l-5.2-14.8l-1.8,14.8c-0.1,0.3-0.2,0.4-0.5,0.4h-1.1l2.1-16.9h1.8
			c0.3,0,0.4,0.1,0.5,0.4c1.8,4.9,3.5,9.7,5.1,14.7l1.8-14.7c0.1-0.3,0.2-0.4,0.5-0.4h1.1L322.2,195z"/>
		<path class="st1" d="M338.9,179.1c-0.1,0.3-0.2,0.4-0.5,0.4h-4.7l-1.8,15.1c-0.1,0.3-0.2,0.4-0.5,0.4h-1.1l1.9-15.6h-4.6
			c-0.3,0-0.5-0.2-0.4-0.5l0.1-0.9H339L338.9,179.1z"/>
	</g>
</g>
</svg>
