<?xml version="1.0" encoding="utf-8"?>
<!-- Generator: Adobe Illustrator 26.0.3, SVG Export Plug-In . SVG Version: 6.00 Build 0)  -->
<svg version="1.1" id="Layer_1" xmlns="http://www.w3.org/2000/svg" xmlns:xlink="http://www.w3.org/1999/xlink" x="0px" y="0px"
	 viewBox="0 0 1094.6 1163.9" style="enable-background:new 0 0 1094.6 1163.9;" xml:space="preserve">
<style type="text/css">
	.st0{fill:#AAAAAA;}
	.st1{fill:#FFFFFF;stroke:#AAAAAA;stroke-width:3.4877;stroke-miterlimit:10;}
	.st2{fill:#FFFFFF;}
	.st3{fill:none;stroke:#0C5D7B;stroke-width:6;stroke-miterlimit:10;}
	.st4{fill:#0C5D7B;}
	.st5{fill:#171626;}
	.st6{fill:#606060;}
	.st7{opacity:0.4;}
</style>
<g>
	<g>
		<g>
			<path class="st0" d="M127,169.4C289.3,7.7,552.2-28.2,758,66.6c208.6,92.1,347.8,320.4,326.2,548.5
				c-11.5,141.5-81.7,277.2-190.4,368.4c-110.1,90.9-261.7,123.6-401.1,99c-112.1-19.1-217.9-77.2-289.8-165.9
				C38.6,718.7,72,423.9,287.5,278.2c58.8-40.3,127-67.2,197.9-75.5c99.4-12.5,203.7,15.4,280.7,80.2c33.3,27.2,61,61,81.2,98.9
				c67.5,125,64.6,292.1-27.5,404.1c-89.5,113.7-271.4,136.5-387.1,50.2c-96.7-71.7-123.8-204.2-55.8-305
				c50.8-76.4,165.5-103.6,248.3-68.4c19.4,8.6,37.4,21.9,47.8,40.7c0,0-0.8,0.4-0.8,0.4c-10.5-18.5-28.5-31.4-47.7-39.7
				c-58.1-23.9-128.4-16.8-183,13.2C366.6,518,332,612.2,348,693.6C386,874.3,607.1,930.2,752,836.6c47-30.2,82.4-76.3,104.8-127
				c44.7-102.7,35-225.4-17.6-323.3c-19.7-36.9-46.6-69.7-79-96.1c-75.1-63.2-176.7-90.5-273.7-78.4
				c-69.5,8.1-136.4,34.3-194.1,73.6c-212.2,142.6-245.2,432.2-84.3,627c70.8,87.6,175.1,145,285.6,164.1
				c137.8,24.6,287.6-7.4,396.7-97c107.9-90.2,177.7-224.5,189.3-364.7c22.1-226.6-115.8-453.6-322.8-545.7
				C549.8-27.1,291,11,127,169.4L127,169.4z"/>
		</g>
	</g>
	<circle class="st1" cx="112.1" cy="192.5" r="103.3"/>
	<g>
		<path class="st0" d="M52.5,188.3h-7.1l-1.5,4.2h-3.4l7-18.5h2.2h0.8l7,18.5H54L52.5,188.3z M51.6,185.6l-2.6-7.6l-2.6,7.6H51.6z"
			/>
		<path class="st0" d="M69.3,176.7v5.4h7.4v2.6h-7.4v7.8H66v-18.5h3.3h8.5v2.7H69.3z"/>
		<path class="st0" d="M94.2,192.4v0.2h-3.5l-3.7-7.1h-3.5v7.1h-3.3v-18.5h6.6c2.1,0,3.8,0.5,4.9,1.4s1.7,2.3,1.7,4.1
			c0,1.2-0.3,2.3-0.9,3.1s-1.4,1.5-2.5,2L94.2,192.4z M83.5,182.8h3.3c1.1,0,1.9-0.3,2.5-0.8s0.9-1.3,0.9-2.2c0-1-0.3-1.7-0.8-2.3
			s-1.4-0.8-2.6-0.8h-3.3V182.8z"/>
		<path class="st0" d="M96.7,192.5v-18.5h3.3v18.5H96.7z"/>
		<path class="st0" d="M116,189.9v2.6h-9.7h-2.4v-18.5h3.3h8.8v2.7h-8.8v5h7.6v2.6h-7.6v5.6H116z"/>
		<path class="st0" d="M130,192.5l-8.1-13v13h-3.3v-18.5h3.3l8.2,13v-13h3.3v18.5H130z"/>
		<path class="st0" d="M146.9,175.1c1.3,0.7,2.2,1.8,2.9,3.1s1,2.9,1,4.6v0.9c0,1.8-0.3,3.3-1,4.6s-1.7,2.3-3,3.1s-2.8,1.1-4.5,1.1
			h-3.9h-1.4v-18.5h3.3h2.2C144.2,174.1,145.6,174.4,146.9,175.1z M147.6,182.8c0-2-0.4-3.5-1.3-4.5s-2.1-1.6-3.7-1.6h-2.2v13.2h2.1
			c1.7,0,3-0.5,3.9-1.6s1.3-2.6,1.3-4.5V182.8z"/>
		<path class="st0" d="M165.7,189.9v2.6h-9.2H154v-18.5h3.3v15.8H165.7z"/>
		<path class="st0" d="M174.9,174.1h3.6l-6.2,11.7v6.8h-3.3v-6.8l-6.2-11.7h3.6l4.2,8.7L174.9,174.1z"/>
		<path class="st0" d="M91.2,221c-0.6,0.9-1.4,1.7-2.4,2.2S86.4,224,85,224c-1.5,0-2.8-0.4-4-1.1s-2-1.7-2.6-3.1s-0.9-2.9-0.9-4.6
			v-1.5c0-1.8,0.3-3.3,0.9-4.6s1.5-2.3,2.7-3.1s2.5-1.1,4-1.1c1.4,0,2.7,0.3,3.7,0.8s1.8,1.3,2.4,2.2s0.9,2.1,1,3.3H89
			c-0.1-1.2-0.5-2.2-1.1-2.8s-1.5-0.9-2.8-0.9c-1.4,0-2.5,0.5-3.2,1.6s-1.1,2.5-1.1,4.5v1.5c0,1.9,0.3,3.4,1,4.5s1.7,1.6,3.2,1.6
			c0.9,0,1.6-0.1,2.2-0.4s1-0.7,1.3-1.2s0.5-1.2,0.6-2h3.3C92.1,218.9,91.8,220,91.2,221z"/>
		<path class="st0" d="M109.8,205.3v18.5h-3.3v-8.2h-8.2v8.2H95v-18.5h3.3v7.7h8.2v-7.7H109.8z"/>
		<path class="st0" d="M124,219.5h-7.1l-1.5,4.2H112l7-18.5h2.2h0.8l7,18.5h-3.4L124,219.5z M123.1,216.8l-2.6-7.6l-2.6,7.6H123.1z"
			/>
		<path class="st0" d="M142.8,207.9h-5.8v15.8h-3.3v-15.8h-5.7v-2.7h9h5.8V207.9z"/>
	</g>
	<circle class="st1" cx="833.9" cy="118.9" r="103.3"/>
	<g>
		<path class="st0" d="M778.8,102.1v5.4h7.4v2.6h-7.4v7.8h-3.3V99.4h3.3h8.5v2.7H778.8z"/>
		<path class="st0" d="M790,117.9V99.4h3.3v18.5H790z"/>
		<path class="st0" d="M808.6,117.9l-8.1-13v13h-3.3V99.4h3.3l8.2,13v-13h3.3v18.5H808.6z"/>
		<path class="st0" d="M825.5,100.5c1.3,0.7,2.2,1.8,2.9,3.1s1,2.9,1,4.6v0.9c0,1.8-0.3,3.3-1,4.6s-1.7,2.3-3,3.1
			c-1.3,0.7-2.8,1.1-4.5,1.1h-3.9h-1.4V99.4h3.3h2.2C822.7,99.4,824.2,99.8,825.5,100.5z M826.1,108.2c0-2-0.4-3.5-1.3-4.5
			s-2.1-1.6-3.7-1.6h-2.2v13.2h2.1c1.7,0,3-0.5,3.9-1.6s1.3-2.6,1.3-4.5V108.2z"/>
		<path class="st0" d="M832.8,117.9V99.4h3.3v18.5H832.8z"/>
		<path class="st0" d="M851.4,117.9l-8.1-13v13H840V99.4h3.3l8.2,13v-13h3.3v18.5H851.4z"/>
		<path class="st0" d="M870.2,117.4c-1.1,0.5-2.6,0.8-4.4,0.8c-1.6,0-2.9-0.4-4.1-1.1c-1.2-0.7-2.1-1.7-2.8-3.1
			c-0.7-1.3-1-2.9-1-4.8v-1.2c0-1.9,0.3-3.5,0.9-4.8s1.5-2.3,2.6-3s2.5-1,4.1-1c2.2,0,3.8,0.5,5,1.6c1.2,1.1,1.9,2.5,2.1,4.3h-3.2
			c-0.3-2.2-1.6-3.3-3.8-3.3c-1.5,0-2.5,0.5-3.3,1.6c-0.7,1.1-1.1,2.6-1.1,4.6v1.2c0,1.3,0.2,2.5,0.6,3.4c0.4,0.9,0.9,1.6,1.6,2.1
			c0.7,0.5,1.6,0.7,2.5,0.7c1,0,1.7-0.1,2.2-0.3s0.9-0.5,1.2-0.8v-3.6h-3.8v-2.5h7v7.1C872.1,116.2,871.3,116.8,870.2,117.4z"/>
		<path class="st0" d="M893,113.7h-7.1l-1.5,4.2H881l7-18.5h2.2h0.8l7,18.5h-3.4L893,113.7z M892.1,111l-2.6-7.6l-2.6,7.6H892.1z"/>
		<path class="st0" d="M792.7,131.4c1,0.5,1.8,1.2,2.3,2.1s0.8,1.9,0.8,3.1c0,1.2-0.3,2.2-0.8,3.1c-0.5,0.9-1.3,1.5-2.3,2
			c-1,0.5-2.2,0.7-3.6,0.7h-3.8v6.8H782v-18.5h7.1C790.4,130.6,791.7,130.9,792.7,131.4z M791.7,138.8c0.6-0.6,0.8-1.3,0.8-2.3
			c0-0.6-0.1-1.1-0.4-1.6c-0.2-0.5-0.6-0.9-1.1-1.2c-0.5-0.3-1.2-0.5-1.9-0.5h-3.8v6.4h3.8C790.2,139.7,791.1,139.4,791.7,138.8z"/>
		<path class="st0" d="M806.8,144.9h-7.1l-1.5,4.2h-3.4l7-18.5h2.2h0.8l7,18.5h-3.4L806.8,144.9z M805.8,142.2l-2.6-7.6l-2.6,7.6
			H805.8z"/>
		<path class="st0" d="M825.6,133.3h-5.8v15.8h-3.3v-15.8h-5.7v-2.7h9h5.8V133.3z"/>
		<path class="st0" d="M841.6,133.3h-5.8v15.8h-3.3v-15.8h-5.7v-2.7h9h5.8V133.3z"/>
		<path class="st0" d="M856.2,146.5v2.6h-9.7H844v-18.5h3.3h8.8v2.7h-8.8v5h7.6v2.6h-7.6v5.6H856.2z"/>
		<path class="st0" d="M872.7,149v0.2h-3.5l-3.7-7.1H862v7.1h-3.3v-18.5h6.6c2.1,0,3.8,0.5,4.9,1.4c1.2,1,1.7,2.3,1.7,4.1
			c0,1.2-0.3,2.3-0.9,3.1s-1.4,1.5-2.5,2L872.7,149z M862,139.4h3.3c1.1,0,1.9-0.3,2.5-0.8c0.6-0.6,0.9-1.3,0.9-2.2
			c0-1-0.3-1.7-0.8-2.3s-1.4-0.8-2.6-0.8H862V139.4z"/>
		<path class="st0" d="M886.5,149.1l-8.1-13v13H875v-18.5h3.3l8.2,13v-13h3.3v18.5H886.5z"/>
	</g>
	<circle class="st1" cx="710.2" cy="1055.3" r="103.3"/>
	<g>
		<path class="st0" d="M676.2,1055.3v-18.5h3.3v18.5H676.2z"/>
		<path class="st0" d="M693.2,1037.9c1.3,0.7,2.2,1.8,2.9,3.1c0.7,1.3,1,2.9,1,4.6v0.9c0,1.8-0.3,3.3-1,4.6c-0.7,1.3-1.7,2.3-3,3.1
			c-1.3,0.7-2.8,1.1-4.5,1.1h-3.9h-1.4v-18.5h3.3h2.2C690.5,1036.8,691.9,1037.1,693.2,1037.9z M693.9,1045.5c0-2-0.4-3.5-1.3-4.5
			c-0.9-1-2.1-1.6-3.7-1.6h-2.2v13.2h2.1c1.7,0,3-0.5,3.9-1.6c0.9-1.1,1.3-2.6,1.3-4.5V1045.5z"/>
		<path class="st0" d="M712.5,1052.6v2.6h-9.7h-2.4v-18.5h3.3h8.8v2.7h-8.8v5h7.6v2.6h-7.6v5.6H712.5z"/>
		<path class="st0" d="M725.4,1051h-7.1l-1.5,4.2h-3.4l7-18.5h2.2h0.8l7,18.5h-3.4L725.4,1051z M724.5,1048.4l-2.6-7.6l-2.6,7.6
			H724.5z"/>
		<path class="st0" d="M733.6,1045.1c-1.1-0.9-1.6-2-1.6-3.4c0-1,0.3-1.9,0.8-2.7c0.6-0.8,1.3-1.4,2.3-1.8c1-0.4,2.1-0.7,3.4-0.7
			c1.3,0,2.5,0.3,3.5,0.8c1,0.5,1.8,1.2,2.3,2c0.5,0.9,0.8,1.8,0.8,2.9H742c0-0.9-0.3-1.7-0.9-2.2c-0.6-0.6-1.4-0.8-2.6-0.8
			c-1.1,0-1.9,0.2-2.4,0.7c-0.6,0.5-0.8,1.1-0.8,1.8c0,0.7,0.3,1.2,0.9,1.7c0.6,0.5,1.6,0.9,3,1.3c1.4,0.4,2.6,0.9,3.4,1.4
			c0.9,0.5,1.6,1.2,2,1.9c0.4,0.7,0.7,1.6,0.7,2.6c0,1-0.3,1.9-0.8,2.7c-0.5,0.8-1.3,1.3-2.3,1.8c-1,0.4-2.2,0.6-3.5,0.6
			c-1.2,0-2.4-0.2-3.5-0.7c-1.1-0.4-2-1.1-2.7-2c-0.7-0.9-1-2-1-3.2h3.3c0,1.1,0.4,1.9,1.1,2.5c0.7,0.5,1.7,0.8,2.9,0.8
			c1.1,0,1.9-0.2,2.5-0.7c0.6-0.4,0.9-1,0.9-1.8c0-0.5-0.1-0.9-0.3-1.3c-0.2-0.3-0.6-0.7-1.1-1c-0.6-0.3-1.4-0.6-2.4-0.9
			C736.2,1046.7,734.7,1046,733.6,1045.1z"/>
		<path class="st0" d="M681.2,1070.6v5.4h7.4v2.6h-7.4v7.8h-3.3V1068h3.3h8.5v2.7H681.2z"/>
		<path class="st0" d="M703.8,1083.8v2.6h-9.2h-2.4V1068h3.3v15.8H703.8z"/>
		<path class="st0" d="M719.3,1082.5c-0.6,1.4-1.5,2.4-2.7,3.1c-1.2,0.7-2.5,1.1-4,1.1c-1.5,0-2.8-0.4-4-1.1
			c-1.2-0.7-2.1-1.8-2.7-3.1c-0.7-1.4-1-3-1-4.8v-0.9c0-1.8,0.3-3.4,1-4.8c0.6-1.4,1.6-2.4,2.7-3.1c1.2-0.7,2.5-1.1,4-1.1
			c1.5,0,2.9,0.4,4,1.1c1.2,0.7,2.1,1.8,2.7,3.1c0.6,1.4,1,3,1,4.8v0.9C720.2,1079.5,719.9,1081.1,719.3,1082.5z M715.8,1072.1
			c-0.8-1.1-1.9-1.6-3.3-1.6c-0.9,0-1.7,0.2-2.3,0.7s-1.2,1.2-1.5,2.1c-0.4,0.9-0.5,2.1-0.5,3.4v1c0,1.3,0.2,2.5,0.5,3.4
			c0.4,0.9,0.9,1.7,1.5,2.2c0.7,0.5,1.4,0.7,2.4,0.7c1.4,0,2.5-0.5,3.2-1.6c0.8-1.1,1.1-2.6,1.1-4.7v-1
			C716.9,1074.7,716.5,1073.1,715.8,1072.1z"/>
		<path class="st0" d="M743.9,1068l-4.2,18.5h-2.2h-1l-3.4-13.4l-3.5,13.4h-2.1h-1.1l-4.2-18.5h3.3l2.8,13.8l3.5-13.8h2h0.7
			l3.4,13.8l2.8-13.8H743.9z"/>
	</g>
	<circle class="st1" cx="112.1" cy="659.4" r="103.3"/>
	<g>
		<path class="st0" d="M37.7,653.7h-7.1l-1.5,4.2h-3.4l7-18.5h2.2h0.8l7,18.5h-3.4L37.7,653.7z M36.8,651l-2.6-7.6l-2.6,7.6H36.8z"
			/>
		<path class="st0" d="M56.1,657.9l-8.1-13v13h-3.3v-18.5H48l8.2,13v-13h3.3v18.5H56.1z"/>
		<path class="st0" d="M80,653.7h-7.1l-1.5,4.2H68l7-18.5h2.2h0.8l7,18.5h-3.4L80,653.7z M79.1,651l-2.6-7.6l-2.6,7.6H79.1z"/>
		<path class="st0" d="M99.4,649.8c0.5,0.8,0.8,1.7,0.8,2.7c0,1.8-0.6,3.1-1.7,4s-2.7,1.4-4.7,1.4h-5.6H87v-18.5h6.3
			c2.1,0,3.7,0.4,4.8,1.2s1.7,2.1,1.7,3.8c0,0.9-0.2,1.6-0.7,2.3c-0.5,0.7-1.1,1.2-2,1.5C98.1,648.6,98.9,649.1,99.4,649.8z
			 M90.3,642.1v5.1h3.1c1,0,1.8-0.2,2.3-0.7c0.6-0.4,0.8-1.1,0.8-1.9c0-0.9-0.3-1.5-0.8-1.9c-0.5-0.4-1.3-0.6-2.4-0.6H90.3z
			 M96.1,654.5c0.5-0.5,0.8-1.2,0.8-2c0-1.9-1-2.9-3-2.9h-3.7v5.7h3.5C94.8,655.3,95.6,655,96.1,654.5z"/>
		<path class="st0" d="M104.6,647.7c-1.1-0.9-1.6-2-1.6-3.4c0-1,0.3-1.9,0.8-2.7c0.6-0.8,1.3-1.4,2.3-1.8c1-0.4,2.1-0.7,3.4-0.7
			c1.3,0,2.5,0.3,3.5,0.8c1,0.5,1.8,1.2,2.3,2c0.5,0.9,0.8,1.8,0.8,2.8h-3.3c0-0.9-0.3-1.7-0.9-2.2c-0.6-0.5-1.4-0.8-2.6-0.8
			c-1.1,0-1.9,0.2-2.4,0.7c-0.6,0.5-0.8,1.1-0.8,1.8c0,0.7,0.3,1.2,0.9,1.7s1.6,0.9,3,1.3c1.4,0.4,2.6,0.9,3.4,1.4s1.6,1.2,2,1.9
			c0.4,0.7,0.7,1.6,0.7,2.6c0,1-0.3,1.9-0.8,2.7s-1.3,1.3-2.3,1.8c-1,0.4-2.2,0.6-3.5,0.6c-1.2,0-2.4-0.2-3.5-0.7s-2-1.1-2.7-2
			s-1-2-1-3.2h3.3c0,1.1,0.4,1.9,1.1,2.5c0.7,0.5,1.7,0.8,2.9,0.8c1.1,0,1.9-0.2,2.5-0.7c0.6-0.4,0.9-1,0.9-1.8
			c0-0.5-0.1-0.9-0.3-1.3s-0.6-0.7-1.1-1c-0.6-0.3-1.4-0.6-2.4-0.9C107.2,649.4,105.7,648.6,104.6,647.7z"/>
		<path class="st0" d="M132.6,642.1h-5.8v15.8h-3.3v-15.8h-5.7v-2.7h9h5.8V642.1z"/>
		<path class="st0" d="M149,657.7v0.2h-3.5l-3.7-7.1h-3.5v7.1H135v-18.5h6.6c2.1,0,3.8,0.5,4.9,1.4c1.2,1,1.7,2.3,1.7,4.1
			c0,1.2-0.3,2.3-0.9,3.1c-0.6,0.8-1.4,1.5-2.5,2L149,657.7z M138.3,648.2h3.3c1.1,0,1.9-0.3,2.5-0.8c0.6-0.5,0.9-1.3,0.9-2.2
			c0-1-0.3-1.7-0.8-2.3c-0.6-0.5-1.4-0.8-2.6-0.8h-3.3V648.2z"/>
		<path class="st0" d="M161.7,653.7h-7.1l-1.5,4.2h-3.4l7-18.5h2.2h0.8l7,18.5h-3.4L161.7,653.7z M160.8,651l-2.6-7.6l-2.6,7.6
			H160.8z"/>
		<path class="st0" d="M181.8,655.1c-0.6,0.9-1.4,1.7-2.4,2.2s-2.3,0.8-3.8,0.8c-1.5,0-2.8-0.4-4-1.1c-1.1-0.7-2-1.7-2.6-3.1
			s-0.9-2.9-0.9-4.6v-1.5c0-1.8,0.3-3.3,0.9-4.6s1.5-2.3,2.7-3.1c1.1-0.7,2.5-1.1,4-1.1c1.4,0,2.7,0.3,3.7,0.8
			c1,0.5,1.8,1.3,2.4,2.2c0.6,1,0.9,2.1,1,3.3h-3.3c-0.1-1.2-0.5-2.2-1.1-2.8s-1.5-0.9-2.8-0.9c-1.4,0-2.5,0.5-3.2,1.6
			c-0.7,1-1.1,2.5-1.1,4.5v1.5c0,1.9,0.3,3.4,1,4.5s1.7,1.6,3.2,1.6c0.9,0,1.6-0.1,2.2-0.4c0.6-0.3,1-0.7,1.3-1.2
			c0.3-0.5,0.5-1.2,0.6-2h3.3C182.7,653.1,182.3,654.2,181.8,655.1z"/>
		<path class="st0" d="M198.7,642.1h-5.8v15.8h-3.3v-15.8h-5.7v-2.7h9h5.8V642.1z"/>
		<path class="st0" d="M34.9,671.4c1,0.5,1.8,1.2,2.3,2.1c0.5,0.9,0.8,1.9,0.8,3.1c0,1.2-0.3,2.2-0.8,3.1s-1.3,1.5-2.3,2
			s-2.2,0.7-3.6,0.7h-3.8v6.8h-3.3v-18.5h7.1C32.7,670.6,33.9,670.9,34.9,671.4z M33.9,678.8c0.6-0.5,0.8-1.3,0.8-2.3
			c0-0.6-0.1-1.1-0.4-1.6s-0.6-0.9-1.1-1.2c-0.5-0.3-1.2-0.5-1.9-0.5h-3.8v6.4h3.8C32.4,679.6,33.3,679.4,33.9,678.8z"/>
		<path class="st0" d="M54.8,688.9v0.2h-3.5l-3.7-7.1h-3.5v7.1h-3.3v-18.5h6.6c2.1,0,3.8,0.5,4.9,1.4c1.2,1,1.7,2.3,1.7,4.1
			c0,1.2-0.3,2.3-0.9,3.1c-0.6,0.8-1.4,1.5-2.5,2L54.8,688.9z M44.1,679.4h3.3c1.1,0,1.9-0.3,2.5-0.8c0.6-0.5,0.9-1.3,0.9-2.2
			c0-1-0.3-1.7-0.8-2.3c-0.6-0.5-1.4-0.8-2.6-0.8h-3.3V679.4z"/>
		<path class="st0" d="M71,685.1c-0.6,1.4-1.5,2.4-2.7,3.1c-1.2,0.7-2.5,1.1-4,1.1c-1.5,0-2.8-0.4-4-1.1c-1.2-0.7-2.1-1.8-2.7-3.1
			c-0.7-1.4-1-3-1-4.8v-0.9c0-1.8,0.3-3.4,1-4.8c0.6-1.4,1.6-2.4,2.7-3.1c1.2-0.7,2.5-1.1,4-1.1c1.5,0,2.9,0.4,4,1.1
			c1.2,0.7,2.1,1.8,2.7,3.1c0.6,1.4,1,3,1,4.8v0.9C71.9,682.2,71.6,683.8,71,685.1z M67.5,674.7c-0.8-1.1-1.9-1.6-3.3-1.6
			c-0.9,0-1.7,0.2-2.3,0.7s-1.2,1.2-1.5,2.1c-0.4,0.9-0.5,2.1-0.5,3.4v1c0,1.3,0.2,2.5,0.5,3.4c0.4,0.9,0.9,1.7,1.5,2.2
			c0.7,0.5,1.4,0.7,2.4,0.7c1.4,0,2.5-0.5,3.2-1.6c0.8-1.1,1.1-2.6,1.1-4.7v-1C68.6,677.3,68.2,675.8,67.5,674.7z"/>
		<path class="st0" d="M84.9,671.7c1.3,0.7,2.2,1.8,2.9,3.1c0.7,1.3,1,2.9,1,4.6v0.9c0,1.8-0.3,3.3-1,4.6c-0.7,1.3-1.7,2.3-3,3.1
			s-2.8,1.1-4.5,1.1h-3.9H75v-18.5h3.3h2.2C82.2,670.6,83.6,671,84.9,671.7z M85.6,679.4c0-2-0.4-3.5-1.3-4.5
			c-0.9-1-2.1-1.6-3.7-1.6h-2.2v13.2h2.1c1.7,0,3-0.5,3.9-1.6c0.9-1.1,1.3-2.6,1.3-4.5V679.4z"/>
		<path class="st0" d="M105.6,682.9c0,1.4-0.3,2.5-0.9,3.5s-1.4,1.7-2.5,2.2c-1,0.5-2.2,0.7-3.5,0.7c-1.3,0-2.5-0.2-3.6-0.7
			c-1-0.5-1.9-1.2-2.5-2.2c-0.6-1-0.9-2.1-0.9-3.5v-12.3H95v12.3c0,1.3,0.3,2.2,1,2.8s1.5,0.9,2.7,0.9c1.2,0,2.1-0.3,2.7-0.9
			c0.6-0.6,0.9-1.6,0.9-2.8v-12.3h3.3V682.9z"/>
		<path class="st0" d="M122.1,686.3c-0.6,0.9-1.4,1.7-2.4,2.2s-2.3,0.8-3.8,0.8c-1.5,0-2.8-0.4-4-1.1c-1.1-0.7-2-1.7-2.6-3.1
			s-0.9-2.9-0.9-4.6v-1.5c0-1.8,0.3-3.3,0.9-4.6s1.5-2.3,2.7-3.1c1.1-0.7,2.5-1.1,4-1.1c1.4,0,2.7,0.3,3.7,0.8
			c1,0.5,1.8,1.3,2.4,2.2c0.6,1,0.9,2.1,1,3.3h-3.3c-0.1-1.2-0.5-2.2-1.1-2.8s-1.5-0.9-2.8-0.9c-1.4,0-2.5,0.5-3.2,1.6
			c-0.7,1-1.1,2.5-1.1,4.5v1.5c0,1.9,0.3,3.4,1,4.5s1.7,1.6,3.2,1.6c0.9,0,1.6-0.1,2.2-0.4c0.6-0.3,1-0.7,1.3-1.2
			c0.3-0.5,0.5-1.2,0.6-2h3.3C123,684.3,122.7,685.4,122.1,686.3z"/>
		<path class="st0" d="M139,673.3h-5.8v15.8H130v-15.8h-5.7v-2.7h9h5.8V673.3z"/>
		<path class="st0" d="M147.5,689.1v-18.5h3.3v18.5H147.5z"/>
		<path class="st0" d="M164.5,671.7c1.3,0.7,2.2,1.8,2.9,3.1c0.7,1.3,1,2.9,1,4.6v0.9c0,1.8-0.3,3.3-1,4.6c-0.7,1.3-1.7,2.3-3,3.1
			s-2.8,1.1-4.5,1.1h-3.9h-1.4v-18.5h3.3h2.2C161.8,670.6,163.2,671,164.5,671.7z M165.2,679.4c0-2-0.4-3.5-1.3-4.5
			c-0.9-1-2.1-1.6-3.7-1.6h-2.2v13.2h2.1c1.7,0,3-0.5,3.9-1.6c0.9-1.1,1.3-2.6,1.3-4.5V679.4z"/>
		<path class="st0" d="M183.7,686.5v2.6H174h-2.4v-18.5h3.3h8.8v2.7h-8.8v5h7.6v2.6h-7.6v5.6H183.7z"/>
		<path class="st0" d="M196.7,684.9h-7.1l-1.5,4.2h-3.4l7-18.5h2.2h0.8l7,18.5h-3.4L196.7,684.9z M195.8,682.2l-2.6-7.6l-2.6,7.6
			H195.8z"/>
	</g>
	<rect x="318.7" y="78.8" class="st2" width="78.6" height="541.4"/>
	<g>
		<g>
			<line class="st3" x1="397.3" y1="29.5" x2="397.3" y2="613.3"/>
			<g>
				<g>
					<path class="st2" d="M374.7,30.7c0-12.5,10.1-22.6,22.6-22.6c12.5,0,22.6,10.1,22.6,22.6c0,12.5-10.1,22.6-22.6,22.6
						C384.8,53.3,374.7,43.2,374.7,30.7z"/>
					<path class="st4" d="M371.7,30.7c0,14.1,11.5,25.6,25.6,25.6c14.1,0,25.6-11.5,25.6-25.6c0-14.1-11.5-25.6-25.6-25.6
						C383.2,5.2,371.7,16.6,371.7,30.7C371.7,44.8,371.7,16.6,371.7,30.7z M416.8,30.7c0,10.8-8.8,19.6-19.6,19.6
						c-10.8,0-19.6-8.8-19.6-19.6c0-10.8,8.8-19.6,19.6-19.6C408.1,11.2,416.8,19.9,416.8,30.7C416.8,41.5,416.8,19.9,416.8,30.7z"
						/>
				</g>
			</g>
			<g>
				<polygon class="st4" points="387.1,601.4 397.3,611.6 407.5,601.4 407.5,610 397.3,620.2 387.1,610 				"/>
			</g>
		</g>
	</g>
	<g>
		<g>
			<path class="st5" d="M463.3,660v32h-12.7v-5.9c-3.1,4.8-7.1,7.1-11.3,7.1c-7.5,0-12.3-5.4-12.3-15.8V675
				c0-9.3,5.8-14.6,15.4-14.6c1.7,0,4.7,0.3,7.1,0.8v-2.8c0-3.1-1.4-4.3-6.1-4.3c-3,0-8.5,0.8-12.9,1.8v-12.1
				c5.1-0.9,11.7-1.8,14.9-1.8C458.8,641.6,463.3,645.8,463.3,660z M440.6,675.2v0.7c0,3.2,1.4,4.8,3.2,4.8c1.9,0,4-1.4,5.8-4.8
				v-5.6c-1.5-0.3-3.1-0.5-4.2-0.5C442.3,669.9,440.6,671.8,440.6,675.2z"/>
			<path class="st5" d="M500.5,641.8v14.5c-0.8-0.1-1.9-0.1-3-0.1c-4.5,0-8.1,1.9-10.7,6.1v29.6h-13.6v-49h12.6v7.3
				c3.3-5,7.7-8.4,12.8-8.4C499.3,641.6,499.9,641.6,500.5,641.8z"/>
			<path class="st5" d="M537.9,643l-0.2,12.1c-3.6-0.6-6.8-1.1-9.3-1.1c-5.8,0-7.8,2.2-7.8,7.8V673c0,5.8,2.3,7.6,7.8,7.6
				c2.4,0,4.9-0.3,9.3-1.2l0.3,12.4c-5.9,1.1-9,1.4-11.9,1.4c-12.8,0-19.1-6.6-19.1-19.1v-13.2c0-12.6,6.2-19.1,19.2-19.1
				C529.1,641.6,532.4,642,537.9,643z"/>
			<path class="st5" d="M560.3,647.8c3.3-4.2,7-6,11.2-6c7.5,0,11.9,5.2,11.9,17.2v33.1h-13.7v-31.8c0-4.4-1.2-5.7-3.2-5.7
				c-2,0-4.3,1.7-6.2,4.5v32.9h-13.7v-68.7h13.7V647.8L560.3,647.8z"/>
			<path class="st5" d="M608.5,626.6v2.4c0,4.3-2.8,6.8-7.8,6.8c-4.9,0-7.8-2.5-7.8-6.8v-2.4c0-4.5,3-6.9,7.8-6.9
				C605.6,619.5,608.5,622,608.5,626.6z M607.3,692h-13.7v-49h13.7V692z"/>
			<path class="st5" d="M631,647.7c2.6-3.4,6.7-5.9,11.2-5.9c7.6,0,11.9,4.9,11.9,17.6v14.5c0,12.8-6,19.3-18.7,19.3
				c-12.5,0-18.2-6.1-18.2-19.1v-50.8H631V647.7z M631.1,659v16.3c0,3.9,1.7,5.8,4.7,5.8c3.3,0,4.9-1.9,4.9-5.9v-15
				c0-4.8-1.2-5.9-3.2-5.9C635.2,654.2,632.8,656.1,631.1,659z"/>
			<path class="st5" d="M698.3,660v32h-12.7v-5.9c-3.1,4.8-7.1,7.1-11.3,7.1c-7.5,0-12.3-5.4-12.3-15.8V675
				c0-9.3,5.8-14.6,15.4-14.6c1.7,0,4.7,0.3,7.1,0.8v-2.8c0-3.1-1.4-4.3-6.1-4.3c-3,0-8.5,0.8-12.9,1.8v-12.1
				c5.1-0.9,11.7-1.8,14.9-1.8C693.8,641.6,698.3,645.8,698.3,660z M675.6,675.2v0.7c0,3.2,1.4,4.8,3.2,4.8c1.9,0,4-1.4,5.8-4.8
				v-5.6c-1.5-0.3-3.1-0.5-4.2-0.5C677.3,669.9,675.6,671.8,675.6,675.2z"/>
			<path class="st5" d="M721.9,692h-13.7v-68.7h13.7V692z"/>
			<path class="st5" d="M768.5,692h-12.7v-6.5c-3.3,4.8-7.4,7.6-11.9,7.6c-7.6,0-12.4-4.9-12.4-16.9v-17.1c0-11.7,5-17.5,13.3-17.5
				c4,0,7.5,1.9,10,4v-22.5h13.7V692z M745.3,660.5V675c0,4.4,1.1,5.7,3.1,5.7c2.2,0,4.4-1.7,6.4-5.1v-18.7
				c-1.6-1.5-3.7-2.5-5.4-2.5C746.7,654.2,745.3,655.8,745.3,660.5z"/>
		</g>
		<g>
			<path class="st6" d="M547.6,722.2l2.4-19.5c1.5-0.1,3.1-0.2,4.8-0.2c4.8,0,7.1,2.8,6.5,7.9l-0.6,5c-0.6,4.7-3.2,7-8.1,7
				C550.8,722.6,549.4,722.4,547.6,722.2z M559,715.6l0.7-5.1c0.6-4.4-1.4-6.4-4.9-6.4c-0.9,0-2.3,0.1-3.2,0.1l-2,16.7
				c1.4,0.1,2.4,0.2,3.2,0.2C556.1,721,558.5,719.1,559,715.6z"/>
			<path class="st6" d="M577.5,708.1l-0.1,0.5c-0.3,2.4-1.9,4.2-4.3,4.9l4.1,8.6h-1.5c-0.3,0-0.5-0.1-0.6-0.3
				c-1.5-3.4-2.5-5.7-3.6-7.9c-1.2,0.1-2.7,0-4.3-0.3l-1,8.2c0,0.3-0.2,0.5-0.6,0.5h-1.2l2.4-19.4c1.2-0.1,3.2-0.2,4.7-0.2
				C575.8,702.6,577.9,704.8,577.5,708.1z M568.3,704.2l-1,7.9c1.2,0.2,2.2,0.3,3.3,0.3c3.1,0,4.8-1.4,5.1-4v-0.2
				c0.3-2.7-1.2-4.2-4.4-4.2C570.3,704.1,569.1,704.1,568.3,704.2z"/>
			<path class="st6" d="M583.7,702.9c0.3,0,0.6,0.2,0.5,0.6l-2.3,18.7h-1.7l2.4-19.2h1.1V702.9z"/>
			<path class="st6" d="M593.1,722.1h-2.3l-3.6-19.2h1.2c0.3,0,0.5,0.1,0.6,0.5c1.1,5.7,2.2,11.3,3.1,17c2.6-5.8,5.1-11.5,7.3-17.1
				c0.1-0.2,0.3-0.3,0.6-0.3h1.5L593.1,722.1z"/>
			<path class="st6" d="M605.4,702.9c0.3,0,0.6,0.2,0.5,0.6l-2.3,18.7h-1.7l2.4-19.2h1.1V702.9z"/>
			<path class="st6" d="M620.7,722.1h-2c-0.3,0-0.5-0.1-0.6-0.5l-5.9-16.8l-2,16.8c-0.1,0.3-0.2,0.5-0.6,0.5h-1.2l2.4-19.2h2
				c0.3,0,0.5,0.1,0.6,0.5c2,5.6,4,11,5.8,16.7l2-16.7c0.1-0.3,0.2-0.5,0.6-0.5h1.2L620.7,722.1z"/>
			<path class="st6" d="M626,716.2l0.9-7.8c0.5-4.2,2.4-5.8,6.4-5.8c1.2,0,3.3,0.3,5.1,0.8l-0.1,1c-0.1,0.3-0.3,0.5-0.6,0.3
				c-1.4-0.5-3.3-0.8-4.7-0.8c-2.7,0-4.1,1.1-4.5,4.2l-1,8.3c-0.3,3,1,4.4,3.9,4.4c1.4,0,2.7-0.3,4.1-0.8l0.9-7.3h-3.3
				c-0.3,0-0.6-0.2-0.5-0.6l0.1-1h5.6l-1.2,9.6c-2.5,1-4.1,1.5-5.8,1.5C627.4,722.6,625.6,720.4,626,716.2z"/>
			<path class="st6" d="M660.7,722.1h-1.4c-0.3,0-0.5-0.1-0.6-0.5c-0.2-1.5-0.5-2.8-0.8-4.3h-7.7l-1.9,4.4c-0.1,0.2-0.3,0.3-0.6,0.3
				h-1.4l8.4-19.2h2.2L660.7,722.1z M650.8,715.7h6.8c-0.7-3.7-1.4-7.5-2.2-11.2C654,708.3,652.5,712,650.8,715.7z"/>
			<path class="st6" d="M670.1,712.1c2.4,1,3.4,2.7,3.1,5.4l-0.1,0.3c-0.5,3.2-2.2,4.7-5.4,4.7c-1.5,0-3.3-0.5-5.1-1.2l0.1-1.1
				c0.1-0.3,0.3-0.6,0.6-0.3c1,0.5,2.4,0.9,3.4,1.1c0.3,0,0.8,0.1,1.1,0.1c2.3,0,3.4-0.9,3.6-3.1l0.1-0.5c0.2-1.9-0.3-3.1-2.2-3.9
				l-2.7-1.1c-2.4-0.9-3.4-3.1-3-5.7l0.1-0.2c0.5-2.7,2.2-4,5.6-4c1.1,0,2.7,0.2,4.3,0.7l-0.1,1.1c-0.1,0.3-0.2,0.5-0.6,0.5
				c-0.8-0.2-1.7-0.5-2.6-0.6c-0.3,0-0.8,0-1.1,0c-2.2,0-3.3,0.9-3.6,2.7l-0.1,0.3c-0.2,1.8,0.5,3.1,2.4,3.9L670.1,712.1z"/>
			<path class="st6" d="M682.9,712.1c2.4,1,3.4,2.7,3.1,5.4l-0.1,0.3c-0.5,3.2-2.2,4.7-5.4,4.7c-1.5,0-3.3-0.5-5.1-1.2l0.1-1.1
				c0.1-0.3,0.3-0.6,0.6-0.3c1,0.5,2.4,0.9,3.4,1.1c0.3,0,0.8,0.1,1.1,0.1c2.3,0,3.4-0.9,3.6-3.1l0.1-0.5c0.2-1.9-0.3-3.1-2.2-3.9
				l-2.7-1.1c-2.4-0.9-3.4-3.1-3-5.7l0.1-0.2c0.5-2.7,2.2-4,5.6-4c1.1,0,2.7,0.2,4.3,0.7l-0.1,1.1c-0.1,0.3-0.2,0.5-0.6,0.5
				c-0.8-0.2-1.7-0.5-2.6-0.6c-0.3,0-0.8,0-1.1,0c-2.2,0-3.3,0.9-3.6,2.7l-0.1,0.3c-0.2,1.8,0.5,3.1,2.4,3.9L682.9,712.1z"/>
			<path class="st6" d="M692.4,702.9c0.3,0,0.6,0.2,0.5,0.6l-2.3,18.7h-1.7l2.4-19.2h1.1V702.9z"/>
			<path class="st6" d="M702.9,712.1c2.4,1,3.4,2.7,3.1,5.4l-0.1,0.3c-0.5,3.2-2.2,4.7-5.4,4.7c-1.5,0-3.3-0.5-5.1-1.2l0.1-1.1
				c0.1-0.3,0.3-0.6,0.6-0.3c1,0.5,2.4,0.9,3.4,1.1c0.3,0,0.8,0.1,1.1,0.1c2.3,0,3.4-0.9,3.6-3.1l0.1-0.5c0.2-1.9-0.3-3.1-2.2-3.9
				l-2.7-1.1c-2.4-0.9-3.4-3.1-3-5.7l0.1-0.2c0.5-2.7,2.2-4,5.6-4c1.1,0,2.7,0.2,4.3,0.7l-0.1,1.1c-0.1,0.3-0.2,0.5-0.6,0.5
				c-0.8-0.2-1.7-0.5-2.6-0.6c-0.3,0-0.8,0-1.1,0c-2.2,0-3.3,0.9-3.6,2.7l-0.1,0.3c-0.2,1.8,0.5,3.1,2.4,3.9L702.9,712.1z"/>
			<path class="st6" d="M722.6,704.1c-0.1,0.3-0.2,0.5-0.6,0.5h-5.3l-2,17.1c-0.1,0.3-0.2,0.5-0.6,0.5H713l2.2-17.7h-5.2
				c-0.3,0-0.6-0.2-0.5-0.6l0.1-1h13.3L722.6,704.1z"/>
			<path class="st6" d="M734.4,722.1H733c-0.3,0-0.5-0.1-0.6-0.5c-0.2-1.5-0.5-2.8-0.8-4.3H724l-1.9,4.4c-0.1,0.2-0.3,0.3-0.6,0.3
				h-1.4l8.4-19.2h2.2L734.4,722.1z M724.7,715.7h6.8c-0.7-3.7-1.4-7.5-2.2-11.2C727.7,708.3,726.2,712,724.7,715.7z"/>
			<path class="st6" d="M749.5,722.1h-2c-0.3,0-0.5-0.1-0.6-0.5l-5.9-16.8l-2,16.8c-0.1,0.3-0.2,0.5-0.6,0.5h-1.2l2.4-19.2h2
				c0.3,0,0.5,0.1,0.6,0.5c2,5.6,4,11,5.8,16.7l2-16.7c0.1-0.3,0.2-0.5,0.6-0.5h1.2L749.5,722.1z"/>
			<path class="st6" d="M768.5,704.1c-0.1,0.3-0.2,0.5-0.6,0.5h-5.3l-2,17.1c-0.1,0.3-0.2,0.5-0.6,0.5h-1.2l2.2-17.7h-5.2
				c-0.3,0-0.6-0.2-0.5-0.6l0.1-1h13.3L768.5,704.1z"/>
		</g>
	</g>
	<g class="st7">
		<path class="st4" d="M372.6,598.2h-34.3v-6.1h34.3V598.2z"/>
		<path class="st4" d="M372.6,548.4v6.1h-11.1l-15.3-0.6l26.3,10v4.4l-26.3,10l15.2-0.6h11.1v6.1h-34.3v-5.2v-2.7l26.1-9.8
			l-26.1-9.7v-7.9H372.6z"/>
		<path class="st4" d="M339.6,520.3c0.9-1.9,2.2-3.3,3.9-4.3c1.7-1,3.5-1.5,5.7-1.5c2.2,0,4.1,0.5,5.7,1.5c1.6,1,2.8,2.4,3.7,4.3
			c0.8,1.9,1.3,4.1,1.3,6.8v7.1h12.7v6.1h-34.3V527C338.2,524.5,338.7,522.2,339.6,520.3z M353.4,522.2c-1-1-2.4-1.6-4.2-1.6
			c-1.1,0-2.1,0.2-3,0.7c-0.9,0.5-1.7,1.2-2.2,2.1c-0.6,1-0.8,2.2-0.8,3.6v7.1H355V527C355,524.9,354.5,523.2,353.4,522.2z"/>
		<path class="st4" d="M372.3,482.1h0.3v6.6l-13.2,6.8v6.5h13.2v6.1h-34.3v-12.2c0-4,0.9-7,2.7-9.2s4.3-3.2,7.7-3.2
			c2.3,0,4.2,0.5,5.8,1.6c1.6,1.1,2.8,2.6,3.6,4.6L372.3,482.1z M354.5,502v-6.1c0-2-0.5-3.6-1.5-4.7s-2.4-1.6-4.1-1.6
			c-1.8,0-3.2,0.5-4.2,1.6c-1,1-1.5,2.6-1.5,4.8v6.1H354.5z"/>
		<path class="st4" d="M365.2,450.9c2.5,1.2,4.5,2.9,5.8,5s2,4.6,2,7.5c0,2.8-0.7,5.3-2,7.5s-3.3,3.9-5.8,5.1s-5.5,1.8-8.9,1.8h-1.7
			c-3.4,0-6.4-0.6-8.9-1.8c-2.5-1.2-4.5-2.9-5.8-5s-2-4.6-2-7.4c0-2.8,0.7-5.3,2-7.5s3.3-3.8,5.8-5s5.5-1.8,8.9-1.8h1.7
			C359.7,449.1,362.7,449.7,365.2,450.9z M345.8,457.4c-2,1.4-3,3.4-3,6c0,1.7,0.4,3.1,1.3,4.4c0.9,1.2,2.2,2.2,4,2.8
			c1.8,0.7,3.9,1,6.4,1h1.8c2.5,0,4.6-0.3,6.4-1c1.8-0.7,3.1-1.6,4-2.8c0.9-1.2,1.4-2.7,1.4-4.4c0-2.6-1-4.6-3-6
			c-2-1.4-4.9-2.1-8.7-2.1h-1.8C350.7,455.3,347.8,456,345.8,457.4z"/>
		<path class="st4" d="M338.2,415.2l34.3,12.3v4.6v1.4l-34.3,12.3V439l26.7-8.5l-26.7-8.6V415.2z"/>
		<path class="st4" d="M367.7,387.7h4.9v18v4.5h-34.3v-6.1v-16.3h4.9v16.3h9.3v-14h4.8v14h10.4V387.7z"/>
		<path class="st4" d="M372.6,346.3v6.1h-11.1l-15.3-0.6l26.3,10v4.4l-26.3,10l15.2-0.6h11.1v6.1h-34.3v-5.2v-2.7l26.1-9.8
			l-26.1-9.7v-7.9H372.6z"/>
		<path class="st4" d="M367.7,315.7h4.9v18v4.5h-34.3v-6.1v-16.3h4.9v16.3h9.3v-14h4.8v14h10.4V315.7z"/>
		<path class="st4" d="M372.6,288.4l-24.1,15.1h24.1v6.1h-34.3v-6.1l24.2-15.2h-24.2v-6.1h34.3V288.4z"/>
		<path class="st4" d="M343.2,249.2v10.7h29.4v6.1h-29.4v10.6h-4.9v-16.6v-10.7H343.2z"/>
		<path class="st4" d="M353.7,241.7c-1.6,2-3.8,2.9-6.4,2.9c-1.8,0-3.5-0.5-4.9-1.5c-1.4-1-2.6-2.5-3.4-4.3c-0.8-1.9-1.2-4-1.2-6.4
			c0-2.5,0.5-4.7,1.4-6.6c0.9-1.9,2.2-3.3,3.8-4.3c1.6-1,3.4-1.5,5.3-1.5v6.1c-1.7,0-3.1,0.5-4.1,1.6c-1,1.1-1.5,2.7-1.5,4.8
			c0,2,0.4,3.5,1.3,4.5c0.9,1,2,1.5,3.4,1.5c1.2,0,2.3-0.6,3.1-1.7c0.8-1.2,1.6-3,2.4-5.5c0.8-2.6,1.7-4.7,2.6-6.4
			c1-1.7,2.2-2.9,3.5-3.7c1.4-0.8,2.9-1.2,4.7-1.2c1.9,0,3.6,0.5,5,1.5c1.4,1,2.5,2.4,3.3,4.3c0.8,1.8,1.1,4,1.1,6.5
			c0,2.3-0.4,4.5-1.2,6.5c-0.8,2.1-2.1,3.7-3.7,5c-1.7,1.3-3.6,1.9-6,1.9v-6.1c2.1,0,3.6-0.7,4.6-2c1-1.3,1.5-3.1,1.5-5.4
			c0-2-0.4-3.5-1.2-4.6c-0.8-1.1-1.9-1.6-3.3-1.6c-0.9,0-1.7,0.2-2.4,0.6c-0.6,0.4-1.2,1.1-1.8,2.1s-1.1,2.5-1.7,4.5
			C356.7,236.9,355.3,239.7,353.7,241.7z"/>
		<path class="st4" d="M372.6,199.9h-34.3v-6.1h34.3V199.9z"/>
		<path class="st4" d="M340.3,167.1c1.4-2.3,3.3-4.2,5.7-5.5c2.5-1.3,5.3-1.9,8.6-1.9h1.7c3.3,0,6.1,0.6,8.6,1.9
			c2.5,1.3,4.4,3.1,5.7,5.5c1.3,2.4,2,5.1,2,8.3v7.3v2.7h-34.3v-6.1v-4.1C338.2,172.1,338.9,169.5,340.3,167.1z M354.5,165.8
			c-3.7,0-6.5,0.8-8.4,2.4s-2.9,3.9-2.9,7v4.1h24.5v-3.8c0-3.1-1-5.5-3-7.2c-2-1.6-4.8-2.4-8.4-2.4H354.5z"/>
		<path class="st4" d="M367.7,130.1h4.9v18v4.5h-34.3v-6.1v-16.3h4.9v16.3h9.3v-14h4.8v14h10.4V130.1z"/>
		<path class="st4" d="M364.7,104.9v13.2l7.9,2.7v6.4l-34.3-12.9v-4.1v-1.4l34.3-13v6.4L364.7,104.9z M359.8,106.6l-14.1,4.9
			l14.1,4.9V106.6z"/>
		<path class="st4" d="M353.7,88.4c-1.6,2-3.8,2.9-6.4,2.9c-1.8,0-3.5-0.5-4.9-1.5c-1.4-1-2.6-2.5-3.4-4.3c-0.8-1.9-1.2-4-1.2-6.4
			c0-2.5,0.5-4.7,1.4-6.6c0.9-1.9,2.2-3.3,3.8-4.3c1.6-1,3.4-1.5,5.3-1.5v6.1c-1.7,0-3.1,0.5-4.1,1.6c-1,1.1-1.5,2.7-1.5,4.8
			c0,2,0.4,3.5,1.3,4.5c0.9,1,2,1.5,3.4,1.5c1.2,0,2.3-0.6,3.1-1.7c0.8-1.2,1.6-3,2.4-5.5c0.8-2.6,1.7-4.7,2.6-6.4
			c1-1.7,2.2-2.9,3.5-3.7c1.4-0.8,2.9-1.2,4.7-1.2c1.9,0,3.6,0.5,5,1.5c1.4,1,2.5,2.4,3.3,4.3c0.8,1.8,1.1,4,1.1,6.5
			c0,2.3-0.4,4.5-1.2,6.5c-0.8,2.1-2.1,3.7-3.7,5c-1.7,1.3-3.6,1.9-6,1.9v-6.1c2.1,0,3.6-0.7,4.6-2c1-1.3,1.5-3.1,1.5-5.4
			c0-2-0.4-3.5-1.2-4.6c-0.8-1.1-1.9-1.6-3.3-1.6c-0.9,0-1.7,0.2-2.4,0.6c-0.6,0.4-1.2,1.1-1.8,2.1s-1.1,2.5-1.7,4.5
			C356.7,83.7,355.3,86.5,353.7,88.4z"/>
	</g>
	<circle class="st1" cx="863.8" cy="482.1" r="103.3"/>
	<g>
		<path class="st0" d="M766.9,483.6v-18.5h3.3v18.5H766.9z"/>
		<path class="st0" d="M793.1,483.6h-3.3v-6l0.3-8.2l-5.4,14.2h-2.3l-5.4-14.2l0.3,8.2v6h-3.3v-18.5h2.8h1.5l5.3,14.1l5.2-14.1h4.3
			V483.6z"/>
		<path class="st0" d="M807.6,465.9c1,0.5,1.8,1.2,2.3,2.1s0.8,1.9,0.8,3.1c0,1.2-0.3,2.2-0.8,3.1c-0.5,0.9-1.3,1.5-2.3,2
			c-1,0.5-2.2,0.7-3.7,0.7h-3.8v6.8h-3.3v-18.5h7.1C805.3,465.1,806.5,465.4,807.6,465.9z M806.5,473.3c0.6-0.6,0.8-1.3,0.8-2.3
			c0-0.6-0.1-1.1-0.4-1.6c-0.2-0.5-0.6-0.9-1.1-1.2c-0.5-0.3-1.2-0.5-1.9-0.5h-3.8v6.4h3.8C805.1,474.2,806,473.9,806.5,473.3z"/>
		<path class="st0" d="M827.5,483.5v0.2h-3.5l-3.7-7.1h-3.5v7.1h-3.3v-18.5h6.6c2.1,0,3.8,0.5,4.9,1.4c1.2,1,1.7,2.3,1.7,4.1
			c0,1.2-0.3,2.3-0.9,3.1s-1.4,1.5-2.5,2L827.5,483.5z M816.8,473.9h3.3c1.1,0,1.9-0.3,2.5-0.8c0.6-0.6,0.9-1.3,0.9-2.2
			c0-1-0.3-1.7-0.8-2.3s-1.4-0.8-2.6-0.8h-3.3V473.9z"/>
		<path class="st0" d="M843.6,479.7c-0.6,1.4-1.5,2.4-2.7,3.1c-1.2,0.7-2.5,1.1-4,1.1c-1.5,0-2.8-0.4-4-1.1s-2.1-1.8-2.7-3.1
			c-0.7-1.4-1-3-1-4.8v-0.9c0-1.8,0.3-3.4,1-4.8s1.6-2.4,2.7-3.1c1.2-0.7,2.5-1.1,4-1.1c1.5,0,2.9,0.4,4,1.1
			c1.2,0.7,2.1,1.8,2.7,3.1c0.6,1.4,1,3,1,4.8v0.9C844.6,476.7,844.3,478.3,843.6,479.7z M840.1,469.2c-0.8-1.1-1.9-1.6-3.3-1.6
			c-0.9,0-1.7,0.2-2.3,0.7s-1.2,1.2-1.5,2.1c-0.4,0.9-0.5,2.1-0.5,3.4v1c0,1.3,0.2,2.5,0.5,3.4s0.9,1.7,1.5,2.2
			c0.7,0.5,1.4,0.7,2.4,0.7c1.4,0,2.5-0.5,3.2-1.6c0.8-1.1,1.1-2.6,1.1-4.7v-1C841.3,471.9,840.9,470.3,840.1,469.2z"/>
		<path class="st0" d="M862.2,465.1l-6.6,18.5h-2.5h-0.8l-6.6-18.5h3.6l4.6,14.4l4.6-14.4H862.2z"/>
		<path class="st0" d="M864.4,483.6v-18.5h3.3v18.5H864.4z"/>
		<path class="st0" d="M883,483.6l-8.1-13v13h-3.3v-18.5h3.3l8.2,13v-13h3.3v18.5H883z"/>
		<path class="st0" d="M901.9,483.1c-1.1,0.5-2.6,0.8-4.4,0.8c-1.6,0-2.9-0.4-4.1-1.1c-1.2-0.7-2.1-1.7-2.8-3.1
			c-0.7-1.3-1-2.9-1-4.8v-1.2c0-1.9,0.3-3.5,0.9-4.8s1.5-2.3,2.6-3s2.5-1,4.1-1c2.2,0,3.8,0.5,5,1.6c1.2,1.1,1.9,2.5,2.1,4.3h-3.2
			c-0.3-2.2-1.6-3.3-3.8-3.3c-1.5,0-2.5,0.5-3.3,1.6c-0.7,1.1-1.1,2.6-1.1,4.6v1.2c0,1.3,0.2,2.5,0.6,3.4c0.4,0.9,0.9,1.6,1.6,2.1
			c0.7,0.5,1.6,0.7,2.5,0.7c1,0,1.7-0.1,2.2-0.3s0.9-0.5,1.2-0.8v-3.6h-3.8v-2.5h7v7.1C903.8,481.9,902.9,482.5,901.9,483.1z"/>
		<path class="st0" d="M927.1,467.8h-5.8v15.8h-3.3v-15.8h-5.7v-2.7h9h5.8V467.8z"/>
		<path class="st0" d="M944.2,465.1v18.5h-3.3v-8.2h-8.2v8.2h-3.3v-18.5h3.3v7.7h8.2v-7.7H944.2z"/>
		<path class="st0" d="M960.1,481v2.6h-9.7H948v-18.5h3.3h8.8v2.7h-8.8v5h7.6v2.6h-7.6v5.6H960.1z"/>
		<path class="st0" d="M785.7,497.1c1,0.5,1.8,1.2,2.3,2.1s0.8,1.9,0.8,3.1c0,1.2-0.3,2.2-0.8,3.1c-0.5,0.9-1.3,1.5-2.3,2
			c-1,0.5-2.2,0.7-3.7,0.7h-3.8v6.8h-3.3v-18.5h7.1C783.4,496.3,784.6,496.6,785.7,497.1z M784.6,504.5c0.6-0.6,0.8-1.3,0.8-2.3
			c0-0.6-0.1-1.1-0.4-1.6c-0.2-0.5-0.6-0.9-1.1-1.2c-0.5-0.3-1.2-0.5-1.9-0.5h-3.8v6.4h3.8C783.2,505.4,784.1,505.1,784.6,504.5z"/>
		<path class="st0" d="M805.6,514.7v0.2H802l-3.7-7.1h-3.5v7.1h-3.3v-18.5h6.6c2.1,0,3.8,0.5,4.9,1.4c1.2,1,1.7,2.3,1.7,4.1
			c0,1.2-0.3,2.3-0.9,3.1s-1.4,1.5-2.5,2L805.6,514.7z M794.9,505.1h3.3c1.1,0,1.9-0.3,2.5-0.8c0.6-0.6,0.9-1.3,0.9-2.2
			c0-1-0.3-1.7-0.8-2.3s-1.4-0.8-2.6-0.8h-3.3V505.1z"/>
		<path class="st0" d="M821.7,510.9c-0.6,1.4-1.5,2.4-2.7,3.1c-1.2,0.7-2.5,1.1-4,1.1c-1.5,0-2.8-0.4-4-1.1s-2.1-1.8-2.7-3.1
			c-0.7-1.4-1-3-1-4.8v-0.9c0-1.8,0.3-3.4,1-4.8s1.6-2.4,2.7-3.1c1.2-0.7,2.5-1.1,4-1.1c1.5,0,2.9,0.4,4,1.1
			c1.2,0.7,2.1,1.8,2.7,3.1c0.6,1.4,1,3,1,4.8v0.9C822.7,507.9,822.4,509.5,821.7,510.9z M818.2,500.4c-0.8-1.1-1.9-1.6-3.3-1.6
			c-0.9,0-1.7,0.2-2.3,0.7s-1.2,1.2-1.5,2.1c-0.4,0.9-0.5,2.1-0.5,3.4v1c0,1.3,0.2,2.5,0.5,3.4s0.9,1.7,1.5,2.2
			c0.7,0.5,1.4,0.7,2.4,0.7c1.4,0,2.5-0.5,3.2-1.6c0.8-1.1,1.1-2.6,1.1-4.7v-1C819.4,503.1,819,501.5,818.2,500.4z"/>
		<path class="st0" d="M835.7,497.4c1.3,0.7,2.2,1.8,2.9,3.1s1,2.9,1,4.6v0.9c0,1.8-0.3,3.3-1,4.6s-1.7,2.3-3,3.1
			c-1.3,0.7-2.8,1.1-4.5,1.1h-3.9h-1.4v-18.5h3.3h2.2C832.9,496.3,834.4,496.7,835.7,497.4z M836.3,505.1c0-2-0.4-3.5-1.3-4.5
			s-2.1-1.6-3.7-1.6h-2.2v13.2h2.1c1.7,0,3-0.5,3.9-1.6s1.3-2.6,1.3-4.5V505.1z"/>
		<path class="st0" d="M856.4,508.7c0,1.4-0.3,2.5-0.9,3.5c-0.6,1-1.4,1.7-2.5,2.2c-1,0.5-2.2,0.7-3.5,0.7c-1.3,0-2.5-0.2-3.6-0.7
			c-1-0.5-1.9-1.2-2.5-2.2c-0.6-1-0.9-2.1-0.9-3.5v-12.3h3.3v12.3c0,1.3,0.3,2.2,1,2.8c0.6,0.6,1.5,0.9,2.7,0.9
			c1.2,0,2.1-0.3,2.7-0.9c0.6-0.6,0.9-1.6,0.9-2.8v-12.3h3.3V508.7z"/>
		<path class="st0" d="M872.9,512.1c-0.6,0.9-1.4,1.7-2.4,2.2c-1,0.5-2.3,0.8-3.8,0.8c-1.5,0-2.8-0.4-4-1.1c-1.1-0.7-2-1.7-2.6-3.1
			s-0.9-2.9-0.9-4.6v-1.5c0-1.8,0.3-3.3,0.9-4.6s1.5-2.3,2.7-3.1c1.1-0.7,2.5-1.1,4-1.1c1.4,0,2.7,0.3,3.7,0.8
			c1,0.5,1.8,1.3,2.4,2.2s0.9,2.1,1,3.3h-3.3c-0.1-1.2-0.5-2.2-1.1-2.8c-0.6-0.6-1.5-0.9-2.8-0.9c-1.4,0-2.5,0.5-3.2,1.6
			s-1.1,2.5-1.1,4.5v1.5c0,1.9,0.3,3.4,1,4.5s1.7,1.6,3.2,1.6c0.9,0,1.6-0.1,2.2-0.4c0.6-0.3,1-0.7,1.3-1.2c0.3-0.5,0.5-1.2,0.6-2
			h3.3C873.8,510,873.5,511.1,872.9,512.1z"/>
		<path class="st0" d="M889.8,499H884v15.8h-3.3V499h-5.7v-2.7h9h5.8V499z"/>
		<path class="st0" d="M898.2,514.8v-18.5h3.3v18.5H898.2z"/>
		<path class="st0" d="M915.3,497.4c1.3,0.7,2.2,1.8,2.9,3.1s1,2.9,1,4.6v0.9c0,1.8-0.3,3.3-1,4.6s-1.7,2.3-3,3.1
			c-1.3,0.7-2.8,1.1-4.5,1.1h-3.9h-1.4v-18.5h3.3h2.2C912.5,496.3,914,496.7,915.3,497.4z M915.9,505.1c0-2-0.4-3.5-1.3-4.5
			s-2.1-1.6-3.7-1.6h-2.2v13.2h2.1c1.7,0,3-0.5,3.9-1.6s1.3-2.6,1.3-4.5V505.1z"/>
		<path class="st0" d="M934.5,512.2v2.6h-9.7h-2.4v-18.5h3.3h8.8v2.7h-8.8v5h7.6v2.6h-7.6v5.6H934.5z"/>
		<path class="st0" d="M947.5,510.6h-7.1l-1.5,4.2h-3.4l7-18.5h2.2h0.8l7,18.5h-3.4L947.5,510.6z M946.5,507.9l-2.6-7.6l-2.6,7.6
			H946.5z"/>
	</g>
</g>
</svg>
